<svg xmlns="http://www.w3.org/2000/svg" viewBox="0 0 400 116.7816092">
<g fillRule="evenodd">
<path d="M6.5 6.646c-.492.141-.499.207-.137 1.187.468 1.266.767 2.347 1.121 4.043.186.894.409 1.757.494 1.917.086.16.206.665.267 1.124.061.458.324 1.733.584 2.833 1.022 4.317 1.334 5.708 1.513 6.749.103.595.288 1.323.412 1.618.123.295.271.896.329 1.335.059.439.246 1.286.416 1.881.171.596.429 1.796.575 2.667.145.871.339 1.771.43 2 .091.229.307 1.129.479 2 .307 1.549.644 2.995 1.127 4.833.324 1.23.503 2.012.803 3.5.138.688.47 2.188.736 3.334.59 2.533.922 3.972 1.348 5.833.178.779.586 2.542.906 3.917.32 1.375.812 3.55 1.094 4.833.282 1.283.658 2.971.835 3.75.177.779.439 2.01.58 2.735.142.725.331 1.406.42 1.513.088.107.235.714.326 1.348.091.635.275 1.529.41 1.987.135.459.361 1.471.503 2.25.142.779.408 1.98.591 2.667.184.688.451 1.813.594 2.5.556 2.663.894 4.103 1.075 4.579.104.273.375 1.398.602 2.5.394 1.915.528 2.525 1.139 5.171.148.642.418 1.879.599 2.75s.484 2.221.674 3c.827 3.409 1.001 4.154 1.24 5.333.139.688.362 1.625.496 2.084.134.458.321 1.133.415 1.5.094.366.234.764.311.884.15.231 17.485.347 17.855.119.341-.211.695-1.13 1.018-2.639.181-.842.401-1.718.491-1.948.089-.229.321-1.129.515-2 .604-2.708 1.276-5.543 1.541-6.5.329-1.187.718-2.826 1.76-7.416.291-1.284.708-3.009.927-3.834.218-.825.59-2.325.827-3.333s.583-2.433.77-3.167c.187-.733.478-1.971.648-2.75.884-4.065 1.183-5.338 1.34-5.693.095-.214.327-1.065.515-1.89.913-4 1.123-4.888 2.015-8.5.181-.733.51-2.083.731-3 .221-.917.515-2.077.654-2.578.139-.501.253-1.07.253-1.264 0-.193.142-.833.317-1.422.429-1.448 1.299-5.155 1.522-6.486.803-4.794 1.859-4.545 2.825.667.319 1.725.633 3.023 1.35 5.583.256.917.514 2.004.572 2.417.059.412.249 1.237.423 1.833.299 1.022.531 1.909 1.11 4.25.136.55.437 1.75.668 2.667.231.916.517 2.154.636 2.75.118.595.329 1.495.47 2 .141.504.367 1.366.503 1.916.273 1.102.631 2.508 1.123 4.417.178.688.43 1.866.56 2.62.13.753.32 1.525.421 1.714.102.19.295.92.429 1.622.134.702.393 1.757.574 2.345.182.587.333 1.266.337 1.508.004.243.124.741.266 1.108.142.366.437 1.454.655 2.416.364 1.602.909 3.889 1.648 6.917.157.642.427 1.654.6 2.25.381 1.308 1.418 5.654 1.571 6.583.06.367.226 1.004.368 1.417.142.412.357 1.248.477 1.858.386 1.959 1.065 3.641 1.471 3.647 9.061.118 17.195-.01 17.389-.275.231-.317.949-2.62 1.111-3.563.054-.321.247-1.146.429-1.834.457-1.735.953-3.902 1.422-6.207.219-1.076.44-2.024.491-2.106.05-.083.203-.702.34-1.376.136-.675.362-1.64.501-2.144.139-.504.446-1.817.681-2.917.235-1.1.684-3.05.996-4.333.312-1.283.803-3.383 1.091-4.667.857-3.824.95-4.226 1.578-6.833.701-2.914 1.076-4.516 1.752-7.5.27-1.192.67-2.954.889-3.917.218-.962.558-2.462.754-3.333.197-.871.466-1.921.598-2.333.132-.413.391-1.5.576-2.417.184-.917.561-2.604.837-3.75.276-1.146.693-2.946.927-4 .491-2.217.921-4.067 1.492-6.417.407-1.671.786-3.324 1.762-7.666.289-1.284.634-2.746.766-3.25.262-.995.858-3.562 1.47-6.334.213-.962.501-2.2.64-2.75.139-.55.491-2.05.782-3.333.29-1.283.666-2.821.833-3.417.168-.596.393-1.571.5-2.166.107-.596.346-1.559.531-2.14.492-1.547 1.102-1.437-8.252-1.491-10.245-.06-9.599-.176-9.928 1.797-.178 1.073-.545 2.805-1.519 7.167-.277 1.237-.692 3.177-.923 4.309-.231 1.133-.485 2.183-.565 2.334-.08.15-.272 1.023-.427 1.938-.155.915-.322 1.728-.371 1.807-.083.134-.255.92-1.378 6.279-.619 2.957-1.098 5.052-1.493 6.539-.177.666-.371 1.548-.431 1.961-.06.412-.25 1.387-.421 2.166-.171.779-.581 2.654-.91 4.167-.33 1.512-.752 3.343-.938 4.068-.186.725-.437 1.85-.557 2.5-.209 1.129-.341 1.713-1.111 4.932-.186.779-.517 2.317-.736 3.417-.218 1.1-.474 2.3-.568 2.666-.094.367-.248 1.186-.342 1.821-.094.634-.25 1.248-.346 1.364-.096.116-.281.834-.41 1.596-.13.763-.35 1.873-.489 2.469-.139.596-.331 1.505-.427 2.02-.441 2.379-1.297 1.775-1.916-1.353-.227-1.146-.556-2.646-.732-3.333-.176-.688-.372-1.587-.436-1.998-.065-.411-.225-1.049-.357-1.417-.131-.368-.377-1.381-.545-2.252-.507-2.63-1.134-5.377-1.39-6.087-.133-.368-.297-1.081-.365-1.583-.069-.502-.258-1.363-.422-1.913-.164-.55-.383-1.525-.487-2.167-.104-.642-.293-1.392-.419-1.667-.126-.275-.313-.987-.415-1.583-.187-1.087-.685-3.309-1.438-6.417-.222-.916-.511-2.154-.643-2.75-.131-.596-.469-2.02-.752-3.166-.283-1.146-.663-2.871-.845-3.834-.181-.962-.473-2.237-.648-2.833-.176-.596-.373-1.421-.438-1.833-.066-.413-.25-1.163-.41-1.667-.159-.504-.345-1.365-.412-1.914-.068-.548-.257-1.373-.422-1.833-.164-.46-.387-1.324-.494-1.92-.108-.596-.303-1.453-.435-1.906-.131-.452-.352-1.478-.491-2.278s-.361-1.714-.493-2.031c-.133-.317-.321-1.092-.419-1.722-.099-.63-.301-1.518-.449-1.974-.149-.455-.356-1.43-.461-2.166l-.191-1.339-.652-.216c-.755-.249-16.776-.226-17.29.025-.161.079-.292.294-.292.478s-.11.682-.245 1.107c-.135.425-.36 1.372-.5 2.106-.14.733-.36 1.745-.488 2.25-.278 1.093-1.061 4.476-1.678 7.25-.244 1.1-.598 2.6-.785 3.333-.188.733-.438 1.822-.557 2.42-.119.598-.402 1.798-.63 2.667-.228.869-.613 2.48-.856 3.58-.242 1.1-.593 2.637-.779 3.416-.461 1.931-.899 3.844-1.468 6.417-.263 1.192-.592 2.617-.729 3.167-.138.55-.453 1.9-.7 3-.247 1.1-.563 2.45-.703 3-.139.55-.396 1.675-.572 2.5-.175.825-.648 2.85-1.051 4.5-.402 1.65-.929 3.937-1.172 5.083-.242 1.146-.688 3.096-.99 4.333-.303 1.238-.757 3.15-1.008 4.25-.727 3.172-.828 3.494-1.118 3.55-.524.1-.992-.897-1.311-2.795-.167-.996-.68-3.449-1.138-5.45-.459-2.001-.887-3.938-.95-4.305-.064-.366-.37-1.754-.681-3.083-.311-1.329-.746-3.354-.967-4.5-.222-1.146-.676-3.246-1.009-4.667-.334-1.42-.744-3.258-.913-4.083-.168-.825-.423-1.988-.565-2.583-.143-.596-.37-1.646-.506-2.334-.36-1.822-1.014-4.719-1.412-6.25-.191-.733-.348-1.518-.35-1.744-.001-.226-.15-1.014-.331-1.75-.722-2.948-1.206-5.086-1.51-6.672-.176-.917-.442-2.192-.591-2.834-.15-.641-.369-1.579-.486-2.083-.117-.504-.339-1.517-.493-2.25-.154-.733-.463-2.158-.688-3.167-.224-1.008-.595-2.676-.825-3.706-.229-1.031-.463-2.324-.521-2.875-.06-.577-.211-1.089-.356-1.21-.281-.233-17.085-.371-17.868-.146m162.583 29.618c-1.508.149-3.239.448-4.416.763-.688.184-1.813.473-2.5.64-2.081.509-5.175 1.744-6.543 2.612-1.999 1.269-2.498 1.608-2.856 1.941-.216.2-.608.54-.871.757-5.33 4.369-7.657 11.167-6.549 19.136 1.037 7.466 6.994 13.081 16.853 15.883.614.174 1.254.391 1.422.481.168.09.941.283 1.716.429.776.146 1.636.339 1.911.428.275.09 1.438.346 2.583.57 2.837.554 4.802 1.065 5.5 1.429.321.168.959.474 1.417.681 3.799 1.718 4.952 6.625 2.197 9.352-5.293 5.241-16.076 1.77-17.353-5.585-.403-2.322.539-2.114-9.597-2.114-10.258 0-10.157-.022-9.504 2.071.156.501 1.047 4.189 1.251 5.179.101.49.549 1.682 1.381 3.666 2.532 6.048 9.689 11.445 17.125 12.914.55.109 1.375.302 1.833.428 3.147.871 11.918.811 15.834-.108 5.878-1.381 12.143-4.737 13.97-7.484.152-.229.582-.791.954-1.25.796-.979 1.476-2.151 2.369-4.083 1.797-3.886 1.794-14.724-.005-17.833-.186-.321-.388-.755-.451-.964-.102-.344-1.025-1.87-1.385-2.291-.08-.094-.29-.394-.466-.666-.316-.491-2.794-3.023-3.58-3.659-.691-.559-2.273-1.587-2.443-1.587-.089 0-.296-.148-.459-.329-.164-.181-.457-.375-.651-.43-.194-.056-.728-.275-1.187-.487-2.514-1.162-6.092-2.189-10.5-3.015-3.688-.691-8.318-1.995-8.929-2.515-.145-.123-.315-.224-.379-.224-1.578 0-3.541-3.321-3.107-5.258.823-3.671 7.878-5.797 12.138-3.657.454.228.89.418.968.422.91.043 3.118 2.617 3.878 4.521.853 2.138.031 1.967 9.453 1.97 9.504.002 8.469.359 8.347-2.874-.238-6.308-4.057-11.874-10.861-15.831-2.452-1.426-7.926-3.12-12.258-3.794-1.201-.187-5.209-.337-6.25-.235m64.5.315c-.091.029-1.254.146-2.583.26-1.418.122-2.727.327-3.167.497-.412.16-1.162.345-1.666.412-.505.067-1.217.256-1.584.421-.366.164-1.004.388-1.416.497-.413.109-.975.332-1.25.496-.275.164-.8.391-1.167.505-.367.114-.817.339-1 .5-.183.16-.615.382-.958.492-.344.11-.625.26-.625.334 0 .073-.228.227-.506.343-.278.115-.775.424-1.106.686-.33.263-.676.478-.767.478-.092 0-.337.169-.547.375-.209.206-.657.6-.997.875-2.006 1.625-4.666 4.533-5.965 6.52-.427.652-.889 1.28-1.027 1.395-.139.115-.252.32-.252.455s-.153.46-.339.722c-.187.262-.425.72-.529 1.018-.103.298-.363.799-.577 1.114-.214.315-.389.693-.389.841-.001.148-.186.568-.412.935-.225.367-.413.817-.417 1-.004.183-.187.72-.407 1.192-.22.472-.487 1.297-.593 1.833-.106.536-.343 1.421-.526 1.966-.183.545-.406 1.557-.495 2.25-.089.692-.237 1.671-.329 2.176-.491 2.693-.526 7.862-.067 10 .128.595.315 1.751.416 2.567.101.816.298 1.791.439 2.166.14.376.356 1.171.479 1.767.124.595.417 1.516.652 2.046.235.53.427 1.055.427 1.168 0 .113.188.557.417.988.229.43.417.864.417.965 0 .163.622 1.324 1.833 3.42.229.397.595 1.046.814 1.442.219.396.468.766.555.822.086.055.282.289.435.519 1.199 1.797 3.544 4.422 4.881 5.463.294.229.655.53.802.669.147.139.528.438.846.664.319.227.693.512.831.634.624.546 1.565 1.2 1.734 1.204.102.003.48.228.84.5.36.273.739.496.843.496.103 0 .444.189.757.42.314.231.869.501 1.235.599.366.099.847.322 1.069.497.221.174.566.317.764.317.199 0 .733.181 1.186.403.454.221 1.275.493 1.825.602.55.11 1.271.308 1.604.441 2.074.825 12.715 1.344 15.562.758.55-.113 1.675-.282 2.5-.376.825-.094 1.875-.309 2.334-.478.458-.169 1.207-.361 1.664-.428.457-.066 1.139-.301 1.515-.521.376-.221.822-.401.991-.401.169 0 .613-.143.985-.317 2.39-1.12 3.202-1.551 4.418-2.35.489-.32 1.132-.733 1.429-.916.619-.382 1.681-1.197 2.117-1.625.164-.161.364-.292.445-.292.169 0 2.259-2.03 2.766-2.686.185-.24.824-1.018 1.42-1.73 1.158-1.383 1.627-2.082 2.156-3.21.183-.39.479-.867.658-1.058.178-.192.373-.548.432-.791.058-.243.258-.758.443-1.145.406-.851.342-.984-.548-1.134-.38-.065-1.207-.297-1.838-.518-.631-.22-1.538-.483-2.017-.584-.478-.1-.955-.251-1.059-.334-.104-.084-.743-.258-1.421-.388s-1.572-.381-1.986-.558c-.414-.178-1.073-.377-1.465-.444-.391-.066-1.1-.256-1.575-.422-.475-.167-1.351-.391-1.947-.498-.596-.107-1.196-.294-1.333-.417-.138-.122-.738-.307-1.334-.411-.596-.104-1.466-.345-1.934-.535-1.031-.418-1.688-.212-1.949.613-.087.275-.327.688-.534.917-.207.229-.479.618-.605.863-.125.246-.559.696-.965 1-1.364 1.024-2.262 1.632-2.413 1.634-.083.002-.571.203-1.084.449-2.697 1.29-8.788 1.307-11.696.034-.603-.264-1.176-.48-1.275-.48-.662 0-4.075-3.098-4.66-4.229-.148-.287-.369-.596-.491-.688-.122-.092-.365-.579-.542-1.083-.176-.505-.433-1.217-.57-1.584-.475-1.269-.531-2.5-.132-2.899l.35-.351h23.063c21.249 0 23.081-.021 23.292-.275.442-.532.821-6.795.504-8.308-.097-.458-.262-2.033-.369-3.5-.106-1.467-.304-2.967-.439-3.333-.135-.367-.321-1.004-.412-1.417-.092-.413-.232-1.013-.311-1.333-.204-.827-1.066-3.157-1.388-3.75-.149-.275-.271-.621-.272-.769-.001-.147-.188-.544-.418-.882-.229-.338-.416-.713-.416-.833 0-.121-.189-.498-.419-.837-.231-.34-.531-.856-.668-1.148-.137-.292-.434-.794-.66-1.115-.225-.321-.581-.835-.79-1.143-.344-.506-.717-.958-1.604-1.94-.165-.183-.437-.558-.605-.833-.167-.275-.859-.988-1.538-1.584-.68-.596-1.405-1.233-1.612-1.416-.768-.679-1.997-1.584-2.151-1.584-.088 0-.416-.225-.729-.5s-.67-.5-.793-.5-.314-.108-.424-.241c-.11-.133-.476-.331-.812-.44-.337-.109-.799-.328-1.029-.487-.479-.332-2.163-1.054-3.5-1.499-.504-.168-1.179-.415-1.5-.549-.321-.133-.958-.293-1.416-.355-.459-.061-1.321-.255-1.917-.431-1.87-.553-10.775-1.114-11.917-.752m-113.918 1.963c-.514.843-.523 69.344-.009 69.619.426.228 17.984.238 18.583.01l.428-.163-.008-34.129c-.007-33.214-.039-35.428-.515-35.73-.125-.079-4.26-.145-9.188-.146L119.995 38l-.33.542m157.368.158c-.291.291-.291 70.142 0 70.433.301.301 22.186.288 22.437-.013.122-.147.196-6.329.24-19.875l.063-19.662.447-1.498c.246-.825.449-1.687.452-1.917.003-.23.19-.718.416-1.085.226-.366.411-.792.411-.945.001-.154.173-.491.382-.75.21-.259.466-.659.569-.888.391-.873 1.774-2.332 2.633-2.779.275-.143.65-.395.834-.559.183-.164.664-.387 1.068-.494.404-.107.926-.32 1.159-.473.635-.416 12.167-.524 12.785-.119l.404.265v25.32c0 20.072.044 25.347.209 25.454.347.225 21.62.261 22.16.037l.461-.191.053-19.105c.051-18.351.066-19.186.394-21.127.458-2.715 1.58-5.524 2.672-6.692.233-.25.69-.777 1.015-1.171.325-.395.917-.908 1.314-1.141.397-.233.722-.485.722-.561 0-.075.394-.267.875-.426.482-.159 1.059-.409 1.284-.555.356-.232 1.338-.272 7.5-.309 3.9-.024 7.256-.081 7.457-.126.426-.097.438-.266.707-10.248.085-3.163.205-6.369.267-7.126l.112-1.376-.595-.249c-1.251-.523-12.292-.189-12.993.393-.129.107-.676.275-1.216.373-.539.098-1.325.397-1.746.665-.42.268-.822.487-.892.487-.119 0-.385.193-1.659 1.201-.451.357-1.265 1.167-2.141 2.129-.46.507-.923 1.204-1.386 2.086-.192.367-.525.755-.739.863-.215.108-.462.323-.549.478-.35.626-.447-.299-.45-4.28l-.002-4.106-.411-.269c-.474-.311-27.8-.407-30.642-.108-2.346.246-6.947 1.792-6.947 2.333 0 .073-.215.221-.477.329-.804.334-2.907 2.601-3.94 4.248-.183.293-.502.79-.708 1.106-.206.315-.374.658-.375.761-.001.395-.443.581-.687.289-.179-.216-.242-1.22-.285-4.543-.033-2.637-.121-4.345-.228-4.474-.248-.298-22.136-.308-22.434-.01m-36.71 15.07c2.443.747 4.366 1.813 5.76 3.194.614.608 1.584 1.925 1.584 2.151 0 .092.15.302.333.468.183.166.333.409.333.54 0 .131.225.75.5 1.377.583 1.327.679 2.693.225 3.195-.408.45-24.208.478-24.579.029-.303-.366-.239-1.968.116-2.915.15-.399.406-1.088.568-1.532.163-.443.455-1.021.65-1.285.194-.263.354-.528.354-.588 0-.101.679-.974 1.221-1.571.605-.664 1.755-1.567 2.279-1.787.32-.135.695-.342.833-.46.206-.176 2.204-.809 3.583-1.135 1.224-.289 4.86-.104 6.24.319" fill="#464646"/><path d="M0 58.333v58.334h400V0H0v58.333m24.511-51.66c.205.109.322.348.322.655 0 .488.087.919 1.005 5.005.278 1.238.615 2.837.749 3.555.134.717.389 1.917.567 2.666.777 3.271 1.181 5.102 1.35 6.113.099.595.325 1.646.502 2.333.177.688.547 2.337.823 3.667.276 1.329.692 3.241.924 4.25.785 3.406 1.393 6.163 1.505 6.833.062.367.247 1.192.411 1.833.164.642.35 1.504.412 1.917.103.685.353 1.797 1.252 5.583.175.734.58 2.609.901 4.167.322 1.558.741 3.508.932 4.333.191.825.461 2.1.599 2.834.139.733.395 1.896.568 2.583.46 1.821 1.288 5.721 1.522 7.167.189 1.169.788 2.5 1.125 2.5.151 0 .231-.284.917-3.25.234-1.009.645-2.771.913-3.917.496-2.117 1.028-4.445 1.77-7.75.227-1.008.676-2.958.999-4.333.323-1.375.771-3.288.997-4.25.225-.963.594-2.538.82-3.5.226-.963.648-2.8.938-4.084.291-1.283.708-3.083.929-4 .22-.916.518-2.191.661-2.833 1.211-5.402 1.938-8.482 2.402-10.167.177-.641.326-1.36.331-1.597.005-.236.151-.911.323-1.5.172-.588.591-2.344.931-3.903.34-1.558.772-3.433.96-4.166.188-.734.434-1.784.547-2.334.113-.55.321-1.45.463-2 .142-.55.384-1.675.538-2.5.428-2.292-.543-2.083 9.694-2.083 9.438 0 9.385-.005 9.39.881.002.295.118 1.023.258 1.619.461 1.961 1.047 4.4 1.301 5.417.138.55.49 2.087.784 3.416.293 1.329.643 2.829.777 3.334.134.504.35 1.441.48 2.083.23 1.142.494 2.227 1.235 5.083.203.78.47 1.98.593 2.667.208 1.154.654 3.141 1.308 5.833.144.596.408 1.759.586 2.584.177.825.434 1.812.57 2.194.136.382.297 1.057.359 1.5.061.443.226 1.256.367 1.806s.429 1.787.639 2.75c.21.962.504 2.237.654 2.833.462 1.839.77 3.187 1.09 4.782.169.842.379 1.667.466 1.833.088.166.245.752.351 1.302.105.55.371 1.787.592 2.75.221.962.634 2.8.918 4.083.284 1.283.657 2.858.83 3.5.173.642.478 2.029.677 3.083.609 3.218 1.315 3.754 1.757 1.334.454-2.491 1.07-5.299 1.312-5.98.143-.401.26-.877.26-1.058 0-.18.221-1.352.491-2.604.271-1.251.603-2.8.74-3.442.137-.641.361-1.616.498-2.166.138-.55.445-1.9.684-3 .239-1.1.617-2.788.841-3.75.224-.963.638-2.838.919-4.167.281-1.329.69-3.242.909-4.25.219-1.008.447-2.096.507-2.417.06-.321.368-1.669.684-2.996.316-1.327.841-3.727 1.166-5.333.326-1.606.623-2.97.661-3.031.072-.118.451-1.844 1.161-5.297.234-1.141.469-2.144.522-2.229.085-.139.442-1.776 1.386-6.364.17-.825.422-1.95.56-2.5.426-1.697 1.104-5.002 1.104-5.379 0-.681.303-.704 9.469-.704 10.196 0 9.42-.141 8.898 1.621-.184.621-.419 1.637-.523 2.258-.104.62-.258 1.311-.342 1.534-.085.223-.466 1.777-.846 3.454-.38 1.677-.84 3.65-1.023 4.383-.182.733-.433 1.821-.556 2.417-.206.992-.521 2.344-1.939 8.333-.272 1.146-.637 2.758-.813 3.583-.175.825-.546 2.438-.824 3.584-.278 1.146-.62 2.608-.76 3.25-.14.641-.469 2.066-.731 3.166s-.718 3.05-1.013 4.334c-.296 1.283-.673 2.858-.838 3.5-.165.641-.348 1.504-.406 1.916-.059.413-.288 1.425-.51 2.25-.397 1.474-.948 3.784-1.808 7.584-1.287 5.685-1.805 7.924-1.851 7.999-.029.046-.399 1.639-.822 3.54-.424 1.9-.806 3.55-.85 3.666-.044.116-.311 1.261-.594 2.545-.283 1.283-.616 2.745-.741 3.25-.542 2.195-.732 3.014-1.061 4.583-.193.917-.497 2.229-.677 2.917-.179.687-.562 2.3-.849 3.583-.491 2.192-.966 4.228-1.903 8.167-.218.916-.509 2.162-.646 2.768-.636 2.81.118 2.603-9.636 2.637-10.427.036-9.412.37-10.323-3.405-.177-.734-.465-1.896-.64-2.584-.176-.687-.552-2.262-.837-3.5-.571-2.485-1.178-4.923-1.699-6.833-.418-1.531-1.063-4.242-1.487-6.25-.174-.825-.4-1.687-.502-1.917-.103-.229-.32-1.054-.484-1.833-.381-1.812-.777-3.405-1.265-5.083-.213-.734-.469-1.821-.569-2.417-.1-.596-.287-1.421-.415-1.833-.129-.413-.282-1.05-.341-1.417-.058-.367-.279-1.267-.49-2-.211-.733-.547-2.008-.746-2.833-.2-.825-.59-2.438-.867-3.584-.277-1.145-.608-2.605-.737-3.244-.128-.638-.357-1.534-.509-1.991-.289-.871-.649-2.33-1.304-5.288-.215-.975-.464-1.913-.552-2.083-.088-.171-.256-.835-.374-1.477-.117-.642-.313-1.453-.435-1.804-.123-.35-.344-1.288-.491-2.083-.259-1.393-.968-4.06-1.163-4.377-.339-.548-.964.97-1.413 3.431-.31 1.701-.694 3.332-1.409 6-.221.825-.449 1.8-.507 2.166-.058.367-.247 1.192-.42 1.834-.476 1.764-.973 3.8-1.416 5.802-.22.991-.51 2.191-.644 2.667-.307 1.082-.865 3.413-1.28 5.336-.174.81-.365 1.55-.423 1.645-.059.095-.29 1.007-.514 2.028-.854 3.886-1.175 5.236-2.499 10.522-.414 1.65-.896 3.675-1.071 4.5-.359 1.69-.994 4.383-1.473 6.25-1.002 3.901-1.364 5.361-1.574 6.333-.564 2.623-1.101 4.869-1.205 5.036-.061.1-.246.853-.411 1.672-.565 2.819.104 2.641-9.884 2.618-10.431-.025-9.314.309-10.11-3.02-.773-3.234-1.433-6.079-1.832-7.889-.203-.917-.554-2.455-.781-3.417-.462-1.963-.868-3.823-1.462-6.709-.221-1.078-.471-2.09-.556-2.25-.084-.16-.204-.629-.267-1.041-.063-.413-.29-1.425-.504-2.25-.214-.825-.474-2.013-.579-2.639-.104-.626-.258-1.264-.343-1.417-.084-.152-.343-1.215-.574-2.361-.841-4.167-.937-4.603-1.264-5.75-.324-1.138-.797-3.19-1.257-5.456-.125-.617-.375-1.705-.555-2.417-.179-.711-.41-1.781-.512-2.377-.103-.596-.363-1.758-.579-2.583-.216-.825-.589-2.4-.829-3.5s-.59-2.638-.778-3.417c-.188-.779-.49-2.091-.672-2.916-.319-1.448-1.003-4.524-1.641-7.369-.168-.754-.423-1.729-.565-2.167-.143-.439-.342-1.323-.444-1.964-.102-.642-.284-1.43-.403-1.75-.12-.321-.307-1.146-.417-1.834-.214-1.348-.782-3.85-1.419-6.25-.219-.825-.447-1.837-.507-2.25-.06-.412-.249-1.312-.42-2-.546-2.192-1.18-5.006-1.423-6.314-.13-.698-.383-1.831-.563-2.519-.18-.687-.436-1.7-.569-2.25-.509-2.114-.921-3.446-1.197-3.868-.577-.88-.559-.882 9.299-.882 5.871 0 9.091.06 9.302.173M176.75 36.489c11.558 2.261 18.728 7.56 21.347 15.777.514 1.614.755 5.856.371 6.54l-.218.389-8.313-.006-8.314-.005-.4-.376c-.22-.207-.52-.792-.666-1.3-1.866-6.488-12.772-8.386-16.158-2.812-2.421 3.985 1.927 7.177 12.101 8.884 2.717.456 6.935 1.572 8.583 2.271 2.73 1.158 5.091 2.496 6.492 3.677.843.712 3.419 3.351 3.422 3.508.002.065.217.365.478.667.261.301.58.746.708.988 2.363 4.47 2.4 4.647 2.4 11.476 0 5.395-.013 5.625-.391 6.833-3.485 11.122-15.165 17.023-30.838 15.581-10.238-.942-19.089-6.284-22.228-13.414-.857-1.947-1.433-3.497-1.611-4.334-.107-.504-.405-1.629-.662-2.5-1.572-5.321-2.404-4.871 9.009-4.871 10.569.001 9.537-.244 9.981 2.371 1.046 6.167 9.149 9.696 15.24 6.639 4.481-2.249 4.185-8.014-.528-10.292-.626-.303-1.326-.645-1.555-.761-.57-.289-4.318-1.207-5.756-1.409-.644-.091-1.657-.313-2.25-.493-.592-.18-1.517-.407-2.054-.503-.537-.097-1.4-.32-1.917-.496-.517-.175-1.315-.438-1.773-.583-4.116-1.305-7.809-3.145-9.75-4.859-3.028-2.674-4.148-4.208-5.498-7.533-1.428-3.515-1.513-11.176-.157-14.153.177-.388.322-.759.322-.826 0-.803 2.345-4.601 3.727-6.036 3.384-3.513 7.179-5.712 12.145-7.036.983-.262 1.921-.545 2.083-.629.251-.129 2.176-.5 3.961-.763 1.269-.186 7.051.073 8.667.389m65.066.075c1.411.144 3.024.385 3.583.535.56.149 1.618.405 2.351.569 1.565.348 2.623.704 4 1.342.55.255 1.188.516 1.417.58.229.064.529.207.666.319.138.111.886.522 1.662.913.776.39 1.615.872 1.864 1.069.248.197.723.547 1.056.776 2.925 2.015 6.693 6.182 8.44 9.333.719 1.297.681 1.219 2.212 4.517.238.513.433 1.021.433 1.13 0 .108.18.625.401 1.15.22.524.454 1.328.52 1.786.066.459.255 1.136.421 1.506.275.616.54 2.369 1.03 6.828.392 3.554.133 8.384-.493 9.223l-.332.443-23.228.084-23.228.083-.155.443c-.226.642.807 4.218 1.419 4.915.149.17.391.544.537.832.282.559 2.89 3.227 3.153 3.227.086 0 .38.187.652.416.273.23.696.465.941.523.245.058.867.28 1.383.493 1.742.721 5.703 1.11 7.591.746.443-.085 1.292-.241 1.888-.346.596-.104 1.233-.286 1.417-.403.183-.116.616-.305.963-.419 1.207-.395 3.419-2.067 3.888-2.939.169-.314.37-.571.446-.571.076 0 .315-.402.533-.894.47-1.062.989-1.266 2.134-.838.386.145 1.28.393 1.985.553.705.159 1.391.379 1.522.488.132.11.83.311 1.551.447s1.607.365 1.969.507c.361.143 1.071.337 1.578.43.506.094 1.187.306 1.513.473.326.166.965.358 1.422.426.456.068 1.334.301 1.951.516.617.215 1.255.392 1.419.392.163 0 .708.157 1.211.349.503.191 1.252.425 1.665.519 1.254.285 1.382.661.639 1.882-.168.275-.305.621-.305.768-.001.148-.226.552-.501.898s-.5.717-.5.824c0 .107-.301.641-.668 1.186-.368.545-.845 1.253-1.06 1.574-1.03 1.534-3.679 4.258-5.269 5.416-.377.275-.9.688-1.161.917-.478.419-2.31 1.585-4.009 2.55-1.178.669-2.534 1.258-3.567 1.548-.449.126-.945.345-1.101.487-.156.141-.763.339-1.349.441-.586.101-1.29.298-1.564.437-.273.139-1.248.35-2.166.469-.918.119-2.082.3-2.586.402-1.987.402-2.876.472-6.167.485-2.461.01-3.766-.057-4.666-.241-.688-.141-2-.365-2.917-.499-.917-.134-2.117-.388-2.667-.564-.55-.177-1.409-.405-1.91-.507-.5-.102-1.025-.289-1.166-.415-.141-.126-.579-.314-.972-.419-.393-.105-1.061-.374-1.483-.599-.423-.225-.862-.408-.977-.408-.114 0-.684-.3-1.267-.665-.582-.366-1.396-.857-1.808-1.09-.412-.234-.975-.592-1.25-.797-.275-.205-.803-.596-1.174-.869-2.226-1.64-5.09-4.424-5.966-5.799-.164-.258-.425-.607-.579-.775-.629-.684-1.807-2.537-3.078-4.839-.847-1.536-.951-1.756-.952-2.019-.001-.148-.14-.448-.309-.667-.355-.458-.893-1.947-1.438-3.98-.209-.78-.494-1.717-.633-2.084-.14-.366-.343-1.341-.452-2.166-.11-.825-.297-1.913-.417-2.417-.434-1.825-.399-8.055.059-10.417.088-.458.27-1.583.404-2.5.134-.916.362-1.966.508-2.333.145-.367.382-1.186.525-1.822.144-.635.327-1.235.407-1.333.08-.098.235-.516.345-.928.182-.683.919-2.421 1.378-3.25.101-.184.533-1.015.959-1.848.426-.832.904-1.657 1.063-1.833.159-.176.603-.805.986-1.398.384-.593.81-1.202.947-1.354.138-.152.888-.982 1.667-1.845 1.25-1.384 4.215-4.078 4.739-4.306.105-.046.458-.289.783-.541.326-.252.674-.459.773-.459.099 0 .391-.175.651-.39.259-.214.718-.474 1.02-.577.302-.103.744-.34.981-.527.237-.186.536-.339.664-.339.127 0 .678-.225 1.222-.5.545-.275 1.108-.5 1.251-.5.142 0 .705-.187 1.249-.417.545-.229 1.178-.416 1.407-.416.229 0 .971-.182 1.65-.403.822-.268 2.005-.468 3.547-.598 1.272-.107 2.501-.262 2.73-.343.58-.206 5.078-.072 8.149.241m-103.39 1.506c.47.344.603 69.727.134 70.116-.379.315-17.752.438-18.852.133l-.708-.196v-34.57c0-37.118-.038-35.388.789-35.604.851-.222 18.324-.108 18.637.121m161.074.426c.208.131.264.884.333 4.49.089 4.619.219 5.338.754 4.169.263-.575.486-.916 1.783-2.723.873-1.216 2.529-2.903 3.288-3.349.312-.183.948-.561 1.413-.839.826-.493 2.754-1.169 4.596-1.608 1.683-.403 32.028-.313 32.479.095.33.299.35.504.393 4.084l.044 3.768.444.052c.341.039.473-.038.565-.33.487-1.534 3.776-4.972 5.688-5.945.384-.196.741-.426.795-.513.054-.087.527-.246 1.053-.354.525-.107 1.275-.34 1.667-.516 1.002-.453 4.439-.678 9.372-.613 4.835.063 4.581-.06 4.42 2.136-.057.779-.175 4.004-.262 7.167-.251 9.135-.297 9.884-.614 10.125-.209.158-1.896.208-7.091.208h-6.817l-1.526.526c-1.956.674-5.158 3.291-5.542 4.53-.062.198-.239.548-.394.777-1.729 2.555-1.841 4.151-1.841 26.279 0 18.492-.007 18.88-.322 19.049-.689.368-22.805.224-23.005-.15-.117-.218-.173-8.488-.173-25.58V58.173l-.385-.097c-.212-.053-2.968-.07-6.125-.038-6.526.066-6.07-.015-9.001 1.608-.779.432-2.405 2.04-2.757 2.728-.154.298-.456.755-.672 1.014-.216.259-.393.599-.393.756 0 .157-.148.576-.329.93-.181.355-.448 1.177-.594 1.827-.146.65-.389 1.595-.539 2.099-.245.822-.278 2.917-.323 20.25-.027 10.633-.089 19.502-.136 19.708l-.086.375h-11.233c-6.178 0-11.352-.045-11.497-.101-.415-.159-.403-70.135.012-70.594.313-.345 22.02-.482 22.558-.142m-66.583 15.482c-3.036.809-5.901 2.798-6.665 4.627-.132.315-.353.687-.492.825-.138.138-.336.567-.44.953-.103.385-.298.912-.432 1.171-.352.682-.57 2.217-.384 2.706l.155.409 12.125-.043 12.125-.043.161-.459c.302-.857-.567-3.534-1.689-5.207-.717-1.07-2.22-2.75-2.46-2.75-.079 0-.263-.107-.408-.237-.604-.543-2.486-1.467-3.438-1.688-.562-.13-1.295-.351-1.627-.49-1.044-.436-4.496-.316-6.531.226m152.432 27.411c.513.244 1.047.444 1.185.444.419 0 2.162.996 3.049 1.742.459.385 1.077.842 1.375 1.015.298.173.542.369.542.436 0 .066.281.461.625.877.993 1.201 1.375 1.722 1.375 1.876 0 .079.177.405.393.724.216.319.51.955.654 1.414.143.458.385 1.17.537 1.583.337.911.315 7.102-.027 7.516-.105.129-.316.66-.466 1.181-.151.52-.405 1.12-.564 1.333-.16.213-.381.574-.492.803-.111.23-.464.754-.785 1.167-.32.412-.743.975-.938 1.25-.196.275-.627.699-.959.943-.332.244-.978.733-1.436 1.088-1.191.92-2.212 1.473-3.141 1.701-.444.108-1.003.326-1.242.483-.527.345-5.931.518-6.89.22-1.373-.427-2.773-.986-3.311-1.32-.321-.2-.677-.364-.791-.364-.115-.001-.342-.132-.506-.293-.163-.16-.595-.512-.958-.782-.749-.556-2.745-2.578-2.745-2.781 0-.073-.214-.38-.476-.681-.262-.301-.566-.823-.675-1.159-.109-.336-.3-.695-.423-.798-.123-.102-.276-.464-.339-.805-.064-.34-.278-.994-.476-1.452-.551-1.273-.541-6.123.014-7.283.207-.43.376-.917.376-1.083 0-.165.225-.751.499-1.301.275-.55.499-1.089.5-1.199 0-.109.138-.296.307-.416.169-.12.405-.405.525-.635.528-1.006 3.599-3.792 4.602-4.173.222-.084.61-.298.86-.475.251-.176.756-.371 1.123-.434.367-.062.78-.214.918-.338.824-.738 6.648-.755 8.181-.024" fill="#fbfbfb"/><path d="M5.926 6.722c-.289.212-.289.244-.016.66.276.422.688 1.754 1.197 3.868.133.55.389 1.563.569 2.25.18.688.433 1.821.563 2.519.243 1.308.877 4.122 1.423 6.314.171.688.36 1.588.42 2 .06.413.288 1.425.507 2.25.637 2.4 1.205 4.902 1.419 6.25.11.688.297 1.513.417 1.834.119.32.301 1.108.403 1.75.102.641.301 1.525.444 1.964.142.438.397 1.413.565 2.167.638 2.845 1.322 5.921 1.641 7.369.182.825.484 2.137.672 2.916.188.779.538 2.317.778 3.417.24 1.1.613 2.675.829 3.5.216.825.476 1.987.579 2.583.102.596.333 1.666.512 2.377.18.712.43 1.8.555 2.417.46 2.266.933 4.318 1.257 5.456.327 1.147.423 1.583 1.264 5.75.231 1.146.49 2.209.574 2.361.085.153.239.791.343 1.417.105.626.365 1.814.579 2.639.214.825.441 1.837.504 2.25.063.412.183.881.267 1.041.085.16.335 1.172.556 2.25.594 2.886 1 4.746 1.462 6.709.227.962.578 2.5.781 3.417 2.08 9.437 2.443 10.629 3.29 10.797.863.171 16.811.14 17.268-.034.644-.245.936-.814 1.268-2.472.165-.819.35-1.572.411-1.672.104-.167.641-2.413 1.205-5.036.21-.972.572-2.432 1.574-6.333.479-1.867 1.114-4.56 1.473-6.25.175-.825.657-2.85 1.071-4.5 1.324-5.286 1.645-6.636 2.499-10.522.224-1.021.455-1.933.514-2.028.058-.095.249-.835.423-1.645.415-1.923.973-4.254 1.28-5.336.134-.476.424-1.676.644-2.667.443-2.002.94-4.038 1.416-5.802.173-.642.362-1.467.42-1.834.058-.366.286-1.341.507-2.166.715-2.668 1.099-4.299 1.409-6 .449-2.461 1.074-3.979 1.413-3.431.195.317.904 2.984 1.163 4.377.147.795.368 1.733.491 2.083.122.351.318 1.162.435 1.804.118.642.286 1.306.374 1.477.088.17.337 1.108.552 2.083.655 2.958 1.015 4.417 1.304 5.288.152.457.381 1.353.509 1.991.129.639.46 2.099.737 3.244.277 1.146.667 2.759.867 3.584.199.825.535 2.1.746 2.833.211.733.432 1.633.49 2 .059.367.212 1.004.341 1.417.128.412.315 1.237.415 1.833.1.596.356 1.683.569 2.417.488 1.678.884 3.271 1.265 5.083.164.779.381 1.604.484 1.833.102.23.328 1.092.502 1.917.424 2.008 1.069 4.719 1.487 6.25.521 1.91 1.128 4.348 1.699 6.833.285 1.238.661 2.813.837 3.5.175.688.463 1.85.64 2.584.911 3.775-.104 3.441 10.323 3.405 9.754-.034 9 .173 9.636-2.637.137-.606.428-1.852.646-2.768.937-3.939 1.412-5.975 1.903-8.167.287-1.283.67-2.896.849-3.583.18-.688.484-2 .677-2.917.329-1.569.519-2.388 1.061-4.583.125-.505.458-1.967.741-3.25.283-1.284.55-2.429.594-2.545.044-.116.426-1.766.85-3.666.423-1.901.793-3.494.822-3.54.046-.075.564-2.314 1.851-7.999.86-3.8 1.411-6.11 1.808-7.584.222-.825.451-1.837.51-2.25.058-.412.241-1.275.406-1.916.165-.642.542-2.217.838-3.5.295-1.284.751-3.234 1.013-4.334.262-1.1.591-2.525.731-3.166.14-.642.482-2.104.76-3.25s.649-2.759.824-3.584c.176-.825.541-2.437.813-3.583 1.418-5.989 1.733-7.341 1.939-8.333.123-.596.374-1.684.556-2.417.183-.733.643-2.706 1.023-4.383.38-1.677.761-3.231.846-3.454.084-.223.238-.914.342-1.534.104-.621.339-1.637.523-2.258.367-1.237.258-1.642-.429-1.598-.329.021-.327.028.031.096.528.101.585.354.276 1.222-.145.408-.377 1.342-.516 2.076-.138.733-.389 1.82-.558 2.416-.168.596-.544 2.134-.834 3.417-.291 1.283-.643 2.783-.782 3.333-.139.55-.427 1.788-.64 2.75-.612 2.772-1.208 5.339-1.47 6.334-.132.504-.477 1.966-.766 3.25-.976 4.342-1.355 5.995-1.762 7.666-.571 2.35-1.001 4.2-1.492 6.417-.234 1.054-.651 2.854-.927 4s-.653 2.833-.837 3.75c-.185.917-.444 2.004-.576 2.417-.132.412-.401 1.462-.598 2.333-.196.871-.536 2.371-.754 3.333-.219.963-.619 2.725-.889 3.917-.676 2.984-1.051 4.586-1.752 7.5-.628 2.607-.721 3.009-1.578 6.833-.288 1.284-.779 3.384-1.091 4.667-.312 1.283-.761 3.233-.996 4.333s-.542 2.413-.681 2.917-.365 1.469-.501 2.144c-.137.674-.29 1.293-.34 1.376-.051.082-.272 1.03-.491 2.106-.469 2.305-.965 4.472-1.422 6.207-.182.688-.375 1.513-.429 1.834-.162.943-.88 3.246-1.111 3.563-.194.265-8.328.393-17.389.275-.406-.006-1.085-1.688-1.471-3.647-.12-.61-.335-1.446-.477-1.858-.142-.413-.308-1.05-.368-1.417-.153-.929-1.19-5.275-1.571-6.583-.173-.596-.443-1.608-.6-2.25-.739-3.028-1.284-5.315-1.648-6.917-.218-.962-.513-2.05-.655-2.416-.142-.367-.262-.865-.266-1.108-.004-.242-.155-.921-.337-1.508-.181-.588-.44-1.643-.574-2.345-.134-.702-.327-1.432-.429-1.622-.101-.189-.291-.961-.421-1.714-.13-.754-.382-1.932-.56-2.62-.492-1.909-.85-3.315-1.123-4.417-.136-.55-.362-1.412-.503-1.916-.141-.505-.352-1.405-.47-2-.119-.596-.405-1.834-.636-2.75-.231-.917-.532-2.117-.668-2.667-.579-2.341-.811-3.228-1.11-4.25-.174-.596-.364-1.421-.423-1.833-.058-.413-.316-1.5-.572-2.417-.717-2.56-1.031-3.858-1.35-5.583-.966-5.212-2.022-5.461-2.825-.667-.223 1.331-1.093 5.038-1.522 6.486-.175.589-.317 1.229-.317 1.422 0 .194-.114.763-.253 1.264s-.433 1.661-.654 2.578c-.221.917-.55 2.267-.731 3-.892 3.612-1.102 4.5-2.015 8.5-.188.825-.42 1.676-.515 1.89-.157.355-.456 1.628-1.34 5.693-.17.779-.461 2.017-.648 2.75-.187.734-.533 2.159-.77 3.167s-.609 2.508-.827 3.333c-.219.825-.636 2.55-.927 3.834-1.042 4.59-1.431 6.229-1.76 7.416-.265.957-.937 3.792-1.541 6.5-.194.871-.426 1.771-.515 2-.09.23-.31 1.106-.491 1.948-.323 1.509-.677 2.428-1.018 2.639-.37.228-17.705.112-17.855-.119-.077-.12-.217-.518-.311-.884-.094-.367-.281-1.042-.415-1.5-.134-.459-.357-1.396-.496-2.084-.239-1.179-.413-1.924-1.24-5.333-.19-.779-.493-2.129-.674-3-.181-.871-.451-2.108-.599-2.75-.611-2.646-.745-3.256-1.139-5.171-.227-1.102-.498-2.227-.602-2.5-.181-.476-.519-1.916-1.075-4.579-.143-.687-.41-1.812-.594-2.5-.183-.687-.449-1.888-.591-2.667-.142-.779-.368-1.791-.503-2.25-.135-.458-.319-1.352-.41-1.987-.091-.634-.238-1.241-.326-1.348-.089-.107-.278-.788-.42-1.513-.141-.725-.403-1.956-.58-2.735-.177-.779-.553-2.467-.835-3.75-.282-1.283-.774-3.458-1.094-4.833-.32-1.375-.728-3.138-.906-3.917-.426-1.861-.758-3.3-1.348-5.833-.266-1.146-.598-2.646-.736-3.334-.3-1.488-.479-2.27-.803-3.5-.483-1.838-.82-3.284-1.127-4.833-.172-.871-.388-1.771-.479-2-.091-.229-.285-1.129-.43-2-.146-.871-.404-2.071-.575-2.667-.17-.595-.357-1.442-.416-1.881-.058-.439-.206-1.04-.329-1.335-.124-.295-.309-1.023-.412-1.618-.179-1.041-.491-2.432-1.513-6.749-.26-1.1-.523-2.375-.584-2.833-.061-.459-.181-.964-.267-1.124-.085-.16-.308-1.023-.494-1.917-.354-1.696-.653-2.777-1.121-4.043-.363-.98-.355-1.047.137-1.184.351-.098.363-.118.074-.132-.189-.01-.48.083-.648.205m17.907-.1c.656.121.779.312.891 1.38.058.551.292 1.844.521 2.875.23 1.03.601 2.698.825 3.706.225 1.009.534 2.434.688 3.167.278 1.329.566 2.604 1.014 4.5.13.55.38 1.75.556 2.667.304 1.586.788 3.726 1.51 6.672.181.736.33 1.524.331 1.75.002.226.159 1.011.35 1.744.398 1.531 1.052 4.428 1.412 6.25.136.688.363 1.738.506 2.334.142.595.397 1.758.565 2.583.169.825.579 2.663.913 4.083.333 1.421.787 3.521 1.009 4.667.221 1.146.656 3.171.967 4.5.311 1.329.617 2.717.681 3.083.063.367.491 2.304.95 4.305.458 2.001.971 4.454 1.138 5.45.319 1.898.787 2.895 1.311 2.795.29-.056.391-.378 1.118-3.55.251-1.1.705-3.012 1.008-4.25.302-1.237.748-3.187.99-4.333.243-1.146.77-3.433 1.172-5.083.403-1.65.876-3.675 1.051-4.5.176-.825.433-1.95.572-2.5.14-.55.456-1.9.703-3 .247-1.1.562-2.45.7-3 .137-.55.466-1.975.729-3.167.569-2.573 1.007-4.486 1.468-6.417.186-.779.537-2.316.779-3.416.243-1.1.628-2.711.856-3.58.228-.869.511-2.069.63-2.667.119-.598.369-1.687.557-2.42.187-.733.541-2.233.785-3.333.617-2.774 1.4-6.157 1.678-7.25.128-.505.348-1.517.488-2.25.14-.734.365-1.681.5-2.106.135-.425.245-.93.245-1.122 0-.245.136-.379.458-.45.744-.164.818-.212.352-.226-.777-.023-1.086.438-1.391 2.07-.154.825-.396 1.95-.538 2.5-.142.55-.35 1.45-.463 2-.113.55-.359 1.6-.547 2.334-.188.733-.62 2.608-.96 4.166-.34 1.559-.759 3.315-.931 3.903-.172.589-.318 1.264-.323 1.5-.005.237-.154.956-.331 1.597-.464 1.685-1.191 4.765-2.402 10.167-.143.642-.441 1.917-.661 2.833-.221.917-.638 2.717-.929 4-.29 1.284-.712 3.121-.938 4.084-.226.962-.595 2.537-.82 3.5-.226.962-.674 2.875-.997 4.25-.323 1.375-.772 3.325-.999 4.333-.742 3.305-1.274 5.633-1.77 7.75-.268 1.146-.679 2.908-.913 3.917-.686 2.966-.766 3.25-.917 3.25-.337 0-.936-1.331-1.125-2.5-.234-1.446-1.062-5.346-1.522-7.167-.173-.687-.429-1.85-.568-2.583-.138-.734-.408-2.009-.599-2.834-.191-.825-.61-2.775-.932-4.333-.321-1.558-.726-3.433-.901-4.167-.899-3.786-1.149-4.898-1.252-5.583-.062-.413-.248-1.275-.412-1.917-.164-.641-.349-1.466-.411-1.833-.112-.67-.72-3.427-1.505-6.833-.232-1.009-.648-2.921-.924-4.25-.276-1.33-.646-2.979-.823-3.667-.177-.687-.403-1.738-.502-2.333-.169-1.011-.573-2.842-1.35-6.113-.178-.749-.433-1.949-.567-2.666-.134-.718-.471-2.317-.749-3.555-.918-4.086-1.005-4.517-1.005-5.005 0-.533-.396-.843-1.03-.805-.372.022-.371.025.03.099m49.826.096c.567.195.579.22.766 1.538.105.736.312 1.711.461 2.166.148.456.35 1.344.449 1.974.098.63.286 1.405.419 1.722.132.317.354 1.231.493 2.031s.36 1.826.491 2.278c.132.453.327 1.31.435 1.906.107.596.33 1.46.494 1.92.165.46.354 1.285.422 1.833.067.549.253 1.41.412 1.914.16.504.344 1.254.41 1.667.065.412.262 1.237.438 1.833.175.596.467 1.871.648 2.833.182.963.562 2.688.845 3.834.283 1.146.621 2.57.752 3.166.132.596.421 1.834.643 2.75.753 3.108 1.251 5.33 1.438 6.417.102.596.289 1.308.415 1.583.126.275.315 1.025.419 1.667.104.642.323 1.617.487 2.167.164.55.353 1.411.422 1.913.068.502.232 1.215.365 1.583.256.71.883 3.457 1.39 6.087.168.871.414 1.884.545 2.252.132.368.292 1.006.357 1.417.064.411.26 1.31.436 1.998.176.687.505 2.187.732 3.333.619 3.128 1.475 3.732 1.916 1.353.096-.515.288-1.424.427-2.02.139-.596.359-1.706.489-2.469.129-.762.314-1.48.41-1.596.096-.116.252-.73.346-1.364.094-.635.248-1.454.342-1.821.094-.366.35-1.566.568-2.666.219-1.1.55-2.638.736-3.417.77-3.219.902-3.803 1.111-4.932.12-.65.371-1.775.557-2.5.186-.725.608-2.556.938-4.068.329-1.513.739-3.388.91-4.167.171-.779.361-1.754.421-2.166.06-.413.254-1.295.431-1.961.395-1.487.874-3.582 1.493-6.539 1.123-5.359 1.295-6.145 1.378-6.279.049-.079.216-.892.371-1.807.155-.915.347-1.788.427-1.938.08-.151.334-1.201.565-2.334.231-1.132.646-3.072.923-4.309.974-4.362 1.341-6.094 1.519-7.167.23-1.382.327-1.56.913-1.688.407-.089.422-.109.097-.125-.57-.029-1.031.276-1.031.684 0 .377-.678 3.682-1.104 5.379-.138.55-.39 1.675-.56 2.5-.944 4.588-1.301 6.225-1.386 6.364-.053.085-.288 1.088-.522 2.229-.71 3.453-1.089 5.179-1.161 5.297-.038.061-.335 1.425-.661 3.031-.325 1.606-.85 4.006-1.166 5.333-.316 1.327-.624 2.675-.684 2.996-.06.321-.288 1.409-.507 2.417-.219 1.008-.628 2.921-.909 4.25-.281 1.329-.695 3.204-.919 4.167-.224.962-.602 2.65-.841 3.75s-.546 2.45-.684 3c-.137.55-.361 1.525-.498 2.166-.137.642-.469 2.191-.74 3.442-.27 1.252-.491 2.424-.491 2.604 0 .181-.117.657-.26 1.058-.242.681-.858 3.489-1.312 5.98-.442 2.42-1.148 1.884-1.757-1.334-.199-1.054-.504-2.441-.677-3.083-.173-.642-.546-2.217-.83-3.5-.284-1.283-.697-3.121-.918-4.083-.221-.963-.487-2.2-.592-2.75-.106-.55-.263-1.136-.351-1.302-.087-.166-.297-.991-.466-1.833-.32-1.595-.628-2.943-1.09-4.782-.15-.596-.444-1.871-.654-2.833-.21-.963-.498-2.2-.639-2.75-.141-.55-.306-1.363-.367-1.806-.062-.443-.223-1.118-.359-1.5-.136-.382-.393-1.369-.57-2.194-.178-.825-.442-1.988-.586-2.584-.654-2.692-1.1-4.679-1.308-5.833-.123-.687-.39-1.887-.593-2.667-.741-2.856-1.005-3.941-1.235-5.083-.13-.642-.346-1.579-.48-2.083-.134-.505-.484-2.005-.777-3.334-.294-1.329-.646-2.866-.784-3.416-.254-1.017-.84-3.456-1.301-5.417-.14-.596-.256-1.324-.258-1.619-.003-.583-.365-.888-1.034-.872-.307.008-.268.051.19.209M168.083 36.1c-1.785.263-3.71.634-3.961.763-.162.084-1.1.367-2.083.629-4.966 1.324-8.761 3.523-12.145 7.036-1.382 1.435-3.727 5.233-3.727 6.036 0 .067-.145.438-.322.826-1.356 2.977-1.271 10.638.157 14.153 1.35 3.325 2.47 4.859 5.498 7.533 1.941 1.714 5.634 3.554 9.75 4.859.458.145 1.256.408 1.773.583.517.176 1.38.399 1.917.496.537.096 1.462.323 2.054.503.593.18 1.606.402 2.25.493 1.438.202 5.186 1.12 5.756 1.409.229.116.929.458 1.555.761 4.713 2.278 5.009 8.043.528 10.292-6.091 3.057-14.194-.472-15.24-6.639-.444-2.615.588-2.37-9.981-2.371-11.413 0-10.581-.45-9.009 4.871.257.871.555 1.996.662 2.5.178.837.754 2.387 1.611 4.334 3.139 7.13 11.99 12.472 22.228 13.414 15.673 1.442 27.353-4.459 30.838-15.581.378-1.208.391-1.438.391-6.833 0-6.829-.037-7.006-2.4-11.476-.128-.242-.447-.687-.708-.988-.261-.302-.476-.602-.478-.667-.003-.157-2.579-2.796-3.422-3.508-1.401-1.181-3.762-2.519-6.492-3.677-1.648-.699-5.866-1.815-8.583-2.271-8.392-1.408-12.484-3.573-12.641-6.687-.181-3.574 4.081-5.956 9.436-5.274 3.505.446 6.363 2.764 7.262 5.889.146.508.446 1.093.666 1.3l.4.376 8.271.002c8.152.002 8.606-.019 8.606-.396 0-.137-.056-.134-.2.01-.292.292-16.046.282-16.622-.011-.291-.148-.581-.645-1.026-1.761-.76-1.904-2.968-4.478-3.878-4.521-.078-.004-.514-.194-.968-.422-4.26-2.14-11.315-.014-12.138 3.657-.434 1.937 1.529 5.258 3.107 5.258.064 0 .234.101.379.224.611.52 5.241 1.824 8.929 2.515 4.408.826 7.986 1.853 10.5 3.015.459.212.993.431 1.187.487.194.055.487.249.651.43.163.181.37.329.459.329.718 0 5.101 3.817 6.023 5.246.176.272.386.572.466.666.36.421 1.283 1.947 1.385 2.291.063.209.265.643.451.964 1.284 2.219 1.821 12.469.82 15.666-.702 2.245-2.001 4.795-3.184 6.25-.372.459-.802 1.021-.954 1.25-1.827 2.747-8.092 6.103-13.97 7.484-3.916.919-12.687.979-15.834.108-.458-.126-1.283-.319-1.833-.428-7.436-1.469-14.593-6.866-17.125-12.914-.832-1.984-1.28-3.176-1.381-3.666-.204-.99-1.095-4.678-1.251-5.179-.653-2.093-.754-2.071 9.504-2.071 10.136 0 9.194-.208 9.597 2.114 1.277 7.355 12.06 10.826 17.353 5.585 2.755-2.727 1.602-7.634-2.197-9.352-.458-.207-1.096-.513-1.417-.681-.698-.364-2.663-.875-5.5-1.429-1.145-.224-2.308-.48-2.583-.57-.275-.089-1.135-.282-1.911-.428-.775-.146-1.548-.339-1.716-.429-.168-.09-.808-.307-1.422-.481-9.859-2.802-15.816-8.417-16.853-15.883-1.108-7.969 1.219-14.767 6.549-19.136.263-.217.655-.557.871-.757.358-.333.857-.672 2.856-1.941 1.37-.87 4.468-2.105 6.543-2.61.687-.168 1.662-.424 2.166-.569 2.82-.814 7.91-1.104 10.917-.621 4.541.728 9.863 2.373 12.341 3.814 5.848 3.401 9.586 8.167 10.748 13.707.115.545.124.552.142.107.149-3.696-4.768-10.38-9.898-13.455-5.307-3.181-15.076-5.35-20.5-4.552m65.584.223c-.229.081-1.458.236-2.73.343-2.059.174-5.51.97-4.307.993.21.004.66-.112 1-.259 2.395-1.032 14.741-1.119 17.667-.125.395.134 1.312.348 2.038.475.727.128 1.471.313 1.654.411.183.098.767.32 1.297.494 1.352.443 3.054 1.168 3.547 1.51.23.159.692.378 1.029.487.336.109.702.307.812.44.11.133.301.241.424.241s.48.225.793.5c.313.275.641.5.729.5.154 0 1.383.905 2.151 1.584.207.183.932.82 1.612 1.416.679.596 1.371 1.309 1.538 1.584.168.275.44.65.605.833.887.982 1.26 1.434 1.604 1.94.209.308.565.822.79 1.143.226.321.523.823.66 1.115.327.697 1.087 1.812 1.087 1.595 0-.662-3.411-5.479-5.284-7.46-.847-.896-2.987-2.738-3.969-3.416-.332-.229-.807-.579-1.055-.776-.249-.197-1.088-.679-1.864-1.069-.776-.391-1.524-.802-1.662-.913-.137-.112-.437-.255-.666-.319-.229-.064-.867-.325-1.417-.58-1.377-.638-2.435-.994-4-1.342-.733-.164-1.791-.42-2.351-.569-2.145-.574-10.704-1.14-11.732-.776m-9.334 1.76c-.504.222-1.05.407-1.213.41-.163.004-.742.232-1.287.507-.544.275-1.095.5-1.222.5-.128 0-.427.153-.664.339-.237.187-.679.424-.981.527-.302.103-.761.363-1.02.577-.26.215-.552.39-.651.39-.099 0-.447.207-.773.459-.325.252-.678.495-.783.541-.524.228-3.489 2.922-4.739 4.306-.779.863-1.529 1.693-1.667 1.845-.137.152-.563.761-.947 1.354-.383.593-.827 1.222-.986 1.398-.159.176-.637 1.001-1.063 1.833-.426.833-.858 1.664-.959 1.848-.459.829-1.196 2.567-1.378 3.25-.11.412-.265.83-.345.928-.08.098-.264.698-.409 1.333-.145.636-.409 1.552-.588 2.037-.179.484-.318 1.084-.31 1.333.016.493.293-.306.766-2.215.423-1.708 1.127-3.736 1.657-4.774.218-.426.396-.885.396-1.019 0-.134.174-.501.388-.816.214-.315.474-.816.577-1.114.104-.298.342-.756.529-1.018.186-.262.339-.587.339-.722s.113-.34.252-.455c.138-.115.6-.743 1.027-1.395 1.299-1.987 3.959-4.895 5.965-6.52.34-.275.788-.669.997-.875.21-.206.455-.375.547-.375.091 0 .437-.215.767-.478.331-.262.828-.571 1.106-.686.278-.116.506-.27.506-.343 0-.074.281-.224.625-.334.343-.11.775-.331.958-.492.183-.161.726-.42 1.206-.576.481-.156.915-.35.965-.432.051-.082.633-.309 1.294-.505.661-.195 1.287-.425 1.392-.51.105-.086.518-.22.917-.298.583-.115.628-.145.226-.154-.275-.007-.912.17-1.417.391m-104.544-.134c-.827.216-.789-1.516-.789 35.626 0 20.896.061 34.592.153 34.592.084 0 .29.043.458.096.285.089.286.083.014-.092-.487-.313-.448-68.83.04-69.629l.33-.542 8.961.003c4.928.001 9.063.067 9.188.146.476.302.508 2.516.515 35.731l.008 34.131-.375.15c-.254.102-.288.155-.104.162.663.026.651.726.606-35.231-.043-34.215-.049-34.789-.368-35.022-.313-.229-17.786-.343-18.637-.121m157.153.689c-.439.486-.423 70.437.016 70.604.234.089.251.069.084-.099-.299-.301-.307-70.144-.009-70.443.298-.298 22.186-.288 22.434.01.107.129.195 1.837.228 4.474.043 3.323.106 4.327.285 4.543.244.292.686.106.687-.289.001-.103.169-.446.375-.761.206-.316.525-.813.708-1.106 1.033-1.647 3.136-3.914 3.94-4.248.262-.108.477-.256.477-.329 0-.541 4.601-2.087 6.947-2.333 2.842-.299 30.168-.203 30.642.108l.411.269.002 4.106c.003 3.981.1 4.906.45 4.28.087-.155.334-.37.549-.478.214-.108.547-.496.739-.863.463-.882.926-1.579 1.386-2.086.876-.962 1.69-1.772 2.141-2.129 1.288-1.019 1.541-1.201 1.676-1.201.08 0 .435-.197.788-.437.354-.24.84-.496 1.081-.569.338-.102.362-.135.104-.144-.183-.007-.492.081-.685.194-.194.113-.682.385-1.084.605-2.036 1.111-5.237 4.461-5.722 5.989-.092.292-.224.369-.565.33l-.444-.052-.044-3.768c-.043-3.58-.063-3.785-.393-4.084-.451-.408-30.796-.498-32.479-.095-1.842.439-3.77 1.115-4.596 1.608-.465.278-1.101.656-1.413.839-1.326.779-4.255 4.285-5.071 6.072-.535 1.169-.665.45-.754-4.169-.069-3.606-.125-4.359-.333-4.49-.538-.34-22.245-.203-22.558.142m80.285-.132c-1.069.085-1.956.256-2.416.463-.4.181-.878.366-1.061.411-.275.067-.261.085.083.1.23.01.642-.104.917-.253 1.227-.664 11.824-1.049 13.19-.478l.595.249-.112 1.376c-.062.757-.182 3.963-.267 7.126-.269 9.982-.281 10.151-.707 10.248-.201.045-3.557.102-7.457.126-6.162.037-7.144.077-7.5.309-.225.146-.802.396-1.284.555-.481.159-.875.351-.875.426 0 .076-.325.328-.722.561-.397.233-.989.746-1.314 1.141-.325.394-.782.921-1.015 1.171-.887.948-2.467 4.536-2.426 5.508.019.446.035.467.093.122.119-.709 1.094-3.394 1.392-3.834.155-.229.332-.579.394-.777.384-1.239 3.586-3.856 5.542-4.53l1.526-.526h6.817c5.195 0 6.882-.05 7.091-.208.317-.241.363-.99.614-10.125.087-3.163.205-6.388.262-7.167.163-2.223.507-2.079-5.032-2.106-2.551-.012-5.399.038-6.328.112M234.083 53.451c-1.379.326-3.377.959-3.583 1.135-.138.118-.513.325-.833.46-.524.22-1.674 1.123-2.279 1.787-.551.606-1.221 1.471-1.221 1.575 0 .063-.188.36-.417.661-.229.3-.412.651-.405.78.006.129.092.066.192-.141.099-.206.236-.375.304-.375.067 0 .239-.29.381-.645 1.371-3.427 9.541-6.475 13.226-4.936.332.139 1.065.36 1.627.49.952.221 2.834 1.145 3.438 1.688.145.13.329.237.408.237.272 0 1.793 1.746 2.604 2.99.444.683.808 1.126.808.985 0-.142-.15-.393-.333-.559-.183-.166-.333-.376-.333-.468 0-.501-1.595-2.285-2.917-3.262-2.672-1.975-7.692-3.105-10.667-2.402m33.589.5c-.003.11.182.477.411.815.23.338.417.736.417.885 0 .149.155.559.344.912.189.353.483 1.065.654 1.581.515 1.561.82 2.289.828 1.976.004-.163-.18-.742-.409-1.287-.229-.544-.417-1.086-.417-1.204 0-.118-.177-.552-.393-.964-.216-.411-.439-.936-.497-1.165-.125-.503-.931-1.833-.938-1.549m-69.108 2.632c0 1.1.027 1.529.06.952.032-.576.032-1.476-.001-2-.033-.523-.06-.052-.059 1.048M308.8 57.992c-.339.065-.714.199-.833.297-.119.098-.555.267-.967.376-.413.109-.9.333-1.083.497-.184.164-.559.416-.834.559-.859.447-2.242 1.906-2.633 2.779-.103.229-.359.629-.569.888-.209.259-.381.596-.382.75 0 .153-.185.579-.411.945-.226.367-.405.892-.399 1.167l.013.5.202-.583c.111-.321.328-.863.482-1.203.155-.341.281-.729.281-.863 0-.133.177-.454.393-.713.216-.259.518-.716.672-1.014.352-.688 1.978-2.296 2.757-2.728 2.931-1.623 2.475-1.542 9.001-1.608 3.157-.032 5.913-.015 6.125.038l.385.097v25.258c0 26.698-.024 25.916.798 25.886l.452-.017-.417-.116-.416-.116-.04-25.326-.04-25.325-.353-.292c-.375-.309-10.7-.422-12.184-.133m-83.928 3.063c-.54 1.236-.775 2.838-.5 3.412l.216.45 12.067.042c13.801.049 12.682.177 12.674-1.443-.004-.668-.144-1.24-.496-2.016-.27-.596-.491-.971-.491-.833-.001.137.152.587.34 1 .432.948.585 2.167.332 2.64l-.192.36h-24.164l-.155-.409c-.201-.53.034-1.94.496-2.974.196-.44.333-.866.304-.946-.029-.08-.223.242-.431.717m45.48-.221c-.019.431.112.93.548 2.083.206.544.253.59.258.25.004-.229-.112-.642-.256-.917-.145-.275-.324-.8-.398-1.167-.091-.453-.14-.533-.152-.249m.862 3.583c.002.458.034.626.072.372.039-.253.038-.628-.002-.833-.04-.205-.071.002-.07.461m-69.106.791c-.056.482-.184 1.288-.285 1.792-.101.504-.206 1.779-.232 2.833l-.049 1.917.134-1.833c.074-1.009.214-2.246.31-2.75.241-1.256.412-2.834.308-2.834-.047 0-.131.394-.186.875m69.331 1.959c.042 1.054.155 2.226.251 2.603.329 1.293-.063 7.759-.502 8.288-.211.254-2.043.275-23.292.275-25.963 0-23.754-.112-23.712 1.209l.017.541.132-.557c.072-.306.199-.625.282-.708.088-.087 9.791-.168 23.291-.192l23.141-.043.332-.443c.633-.849.888-5.65.489-9.223-.37-3.311-.514-3.899-.429-1.75m28.761 1.125c-.232.9-.365 1.872-.347 2.541l.028 1.084.124-1.334c.068-.733.197-1.52.286-1.75.171-.435.437-2 .341-2-.031 0-.225.657-.432 1.459m44.296 1.234c-.202 1.154-.251 4.621-.288 20.407l-.044 19.017-.374.181c-.205.099-.275.185-.154.191.929.048.864 1.485.864-19.218 0-12.732.059-19.326.182-20.239.247-1.831.116-2.068-.186-.339m-143.113 3.141c0 .504.032.71.07.458.038-.252.038-.665 0-.917s-.07-.046-.07.459m98.325 17.758c-.032 14.127-.089 18.556-.241 18.708-.152.152-.153.2-.004.2.366 0 .379-.719.332-19.083l-.046-18.333-.041 18.508m-98.181-15.342c-.014.825.057 1.797.158 2.16.101.362.283 1.225.406 1.916l.223 1.258-.094-1.237c-.051-.68-.167-1.468-.257-1.75-.091-.282-.22-1.263-.288-2.18l-.123-1.667-.025 1.5m22.825 5.417c-.002.229.112.717.254 1.083.142.367.403 1.079.579 1.584.176.504.42.991.542 1.083.122.092.343.401.491.688.583 1.127 3.998 4.229 4.657 4.229.2 0-.791-.749-1.292-.977-.506-.23-2.895-2.663-3.193-3.253-.145-.286-.386-.659-.535-.829-.255-.291-.754-1.575-1.271-3.275-.158-.519-.229-.622-.232-.333m-22.004.438c-.008.287.11.812.262 1.167.152.355.377 1.02.499 1.478l.221.834-.098-.834c-.054-.458-.18-.983-.279-1.166-.1-.184-.274-.709-.386-1.167-.172-.697-.208-.748-.219-.312m175.903.081c-.457.093-.945.27-1.083.394s-.551.276-.918.338c-.367.063-.872.258-1.123.434-.25.177-.638.391-.86.475-1.003.381-4.074 3.167-4.602 4.173-.12.23-.356.515-.525.635-.169.12-.307.307-.307.416-.001.11-.225.649-.5 1.199-.274.55-.499 1.136-.499 1.301 0 .166-.169.653-.376 1.083-.555 1.16-.565 6.01-.014 7.283.198.458.412 1.112.476 1.452.063.341.216.703.339.805.123.103.314.462.423.798.109.336.413.858.675 1.159.262.301.476.608.476.681 0 .203 1.996 2.225 2.745 2.781.363.27.795.622.958.782.164.161.391.292.506.293.114 0 .47.164.791.364.538.334 1.938.893 3.311 1.32.959.298 6.363.125 6.89-.22.239-.157.798-.375 1.242-.483.929-.228 1.95-.781 3.141-1.701.458-.355 1.104-.844 1.436-1.088.332-.244.763-.668.959-.943.195-.275.618-.838.938-1.25.321-.413.674-.937.785-1.167.111-.229.332-.59.492-.803.159-.213.413-.813.564-1.333.15-.521.361-1.052.466-1.181.342-.414.364-6.605.027-7.516-.152-.413-.394-1.125-.537-1.583-.144-.459-.438-1.095-.654-1.414-.216-.319-.393-.645-.393-.724 0-.154-.382-.675-1.375-1.876-.344-.416-.625-.811-.625-.877 0-.067-.244-.263-.542-.436-.298-.173-.916-.63-1.375-1.015-.887-.746-2.63-1.742-3.049-1.742-.138 0-.672-.2-1.185-.444-1.048-.5-5.353-.725-7.098-.37m-128.217 2.765c-.273.053-.497.333-.783.979-.219.497-.461.904-.537.904-.076 0-.277.257-.446.571-.471.875-2.689 2.549-3.888 2.936-.347.111-.721.275-.833.364-.111.088-.561.259-1 .38-.61.168-.69.222-.339.234.252.008.934-.21 1.516-.485s1.126-.501 1.209-.503c.151-.002 1.049-.61 2.413-1.634.406-.304.84-.754.965-1 .126-.245.398-.634.605-.863.207-.229.447-.642.534-.917.261-.825.918-1.031 1.949-.613.468.19 1.338.431 1.934.535.596.104 1.198.292 1.338.417.14.126.59.268 1 .317l.746.088-.628-.161c-.345-.089-.795-.27-1-.402-.205-.132-.857-.327-1.449-.433-.592-.105-1.267-.289-1.5-.408-.532-.272-1.308-.403-1.806-.306m-46.695.846c-.003.118.114.493.26.834.146.34.379.993.517 1.449.139.456.395 1.01.568 1.231.174.22.316.522.317.67.001.263.105.483.952 2.019 1.271 2.302 2.449 4.155 3.078 4.839.154.168.415.517.579.775.876 1.375 3.74 4.159 5.966 5.799.371.273.899.664 1.174.869.275.205.838.563 1.25.797.412.233 1.226.724 1.808 1.09 1.227.771 1.762.904.675.168-.403-.274-.813-.499-.912-.5-.098-.002-.473-.226-.833-.499-.36-.272-.738-.497-.84-.5-.169-.004-1.11-.658-1.734-1.204-.138-.122-.512-.407-.831-.634-.318-.226-.699-.525-.846-.664-.147-.139-.508-.44-.802-.669-1.337-1.041-3.682-3.666-4.881-5.463-.153-.23-.349-.464-.435-.519-.087-.056-.336-.426-.555-.822-.219-.396-.585-1.045-.814-1.442-1.211-2.096-1.833-3.257-1.833-3.42 0-.101-.188-.535-.417-.965-.229-.431-.417-.87-.417-.976 0-.275-.986-2.521-.994-2.263m53.828 1.101c.412.126.961.313 1.219.416.258.102.595.183.75.179.453-.013-1.323-.656-2.053-.744l-.666-.08.75.229m2.75.75c.275.078.896.301 1.381.497.484.195 1.047.348 1.25.338.285-.013.255-.045-.131-.139-.275-.066-.736-.244-1.025-.394-.288-.151-.85-.312-1.25-.358-.589-.069-.631-.059-.225.056m3.653 1.039c.36.084.735.22.834.302.098.081.479.196.846.254.518.082.409.011-.487-.319-.635-.233-1.31-.416-1.5-.407-.19.009-.052.086.307.17m3.718 1.141c.755.261 1.673.526 2.041.588.871.147.932.284.517 1.142-.427.882-.452 1.201-.04.526.743-1.221.615-1.597-.639-1.882-.413-.094-1.162-.328-1.665-.519-.503-.192-1.065-.345-1.25-.34-.184.005.282.223 1.036.485m-35.148 1.006c.581.275 1.256.491 1.5.48.348-.015.372-.037.11-.101-.183-.045-.762-.261-1.287-.481-1.354-.566-1.583-.494-.323.102m3.11.76c1.108.286 4.387.245 5.75-.072.718-.167.707-.169-.25-.067-1.393.15-4.305.153-5.5.005l-1-.123 1 .257m34.096 1.25c-.007.143-.165.424-.351.624-.187.2-.489.683-.672 1.073-.529 1.128-.998 1.827-2.156 3.21-.596.712-1.235 1.49-1.42 1.73-.507.656-2.597 2.686-2.766 2.686-.081 0-.281.131-.445.292-.436.428-1.498 1.243-2.117 1.625-.297.183-.94.596-1.429.916-1.216.799-2.028 1.23-4.418 2.35-.372.174-.822.317-1 .318-.177 0-.585.162-.905.36-.321.197-.809.421-1.084.496-.442.121-.425.129.146.064.355-.04.775-.19.933-.333.158-.143.655-.364 1.104-.49 1.033-.29 2.389-.879 3.567-1.548 1.699-.965 3.531-2.131 4.009-2.55.261-.229.784-.642 1.161-.917 1.596-1.162 4.263-3.907 5.265-5.416.212-.321.625-.92.915-1.331.291-.411.667-1.049.836-1.417.169-.368.468-.867.664-1.11.196-.243.316-.543.266-.667-.067-.17-.093-.161-.103.035m-47.296 14.387c.951.518 1.147.556.584.113-.226-.178-.629-.374-.897-.436-.366-.086-.289-.005.313.323m1.617.632c.32.091.699.27.841.397.142.127.779.344 1.416.482.638.139 1.459.363 1.826.498s.817.246 1 .247c.479.002-1.251-.597-2.379-.823-.525-.105-1.325-.373-1.779-.594-.453-.222-.978-.396-1.166-.388-.212.009-.12.078.241.181m24.916 1.086c-.366.142-.929.315-1.25.385l-.583.128.547.019c.301.011.826-.102 1.167-.251.34-.148.844-.328 1.119-.399.453-.118.461-.13.084-.135-.229-.003-.717.111-1.084.253m-124.22.676c2.446.026 6.496.026 9 0 2.505-.026.504-.047-4.446-.047-4.95 0-6.999.021-4.554.047m106.054.122c.733.114 1.933.33 2.666.481.998.204 2.195.269 4.75.258 3.3-.013 4.204-.085 6.167-.487.504-.104 1.329-.248 1.833-.322.703-.102.781-.137.334-.152-.321-.01-1.259.11-2.084.267-2.124.405-9.919.402-12.333-.004-.917-.155-1.892-.274-2.167-.265-.275.009.1.109.834.224" fill="#1fbd75"/></g></svg>