<svg xmlns="http://www.w3.org/2000/svg" viewBox="0 0 400 124.50980392"><g fill-rule="evenodd"><path fill="#454646" d="M6.754 7.327c-.054.087-.027.294.061.458.315.591 1.186 3.656 1.357 4.778.096.63.276 1.342.399 1.583.124.241.311 1 .415 1.687.104.688.369 1.888.588 2.667.22.779.452 1.867.516 2.417.064.55.215 1.24.335 1.533.12.294.344 1.232.499 2.084.154.852.421 1.999.593 2.549.173.55.359 1.375.416 1.834.056.458.276 1.401.489 2.095.213.695.471 1.875.574 2.623.102.749.288 1.606.412 1.905.125.299.277.918.338 1.377.188 1.418.449 2.631.753 3.5.16.458.346 1.283.413 1.833.066.55.232 1.262.367 1.583.136.321.388 1.397.561 2.392.172.995.389 1.9.482 2.011.092.111.287.943.432 1.848.146.905.41 2.057.587 2.561.177.503.409 1.558.515 2.343.107.786.289 1.619.405 1.852.117.233.337 1.171.49 2.084.153.912.388 1.884.523 2.159.134.275.348 1.175.475 2s.373 1.913.548 2.417c.174.504.412 1.629.528 2.5.116.871.269 1.658.34 1.75.149.192.581 2.108.751 3.331.064.457.224 1.039.355 1.293.131.254.314 1.066.407 1.804.093.738.313 1.711.491 2.161.177.45.436 1.581.576 2.513.139.932.322 1.778.406 1.88.084.102.316 1.084.516 2.184s.463 2.238.585 2.53c.121.292.275.964.341 1.493.067.53.291 1.499.499 2.154.208.655.467 1.783.577 2.506.11.724.3 1.578.422 1.9.122.321.372 1.374.555 2.339.183.965.444 2.09.58 2.5.136.41.326 1.276.424 1.924.097.648.284 1.481.414 1.85s.36 1.394.51 2.276c.151.883.376 1.851.501 2.151.124.299.28.919.345 1.378.065.458.327 1.658.583 2.666.256 1.009.511 2.105.568 2.436.22 1.291-.663 1.19 10.205 1.167l8.859-.019.506-1.042c.278-.573.586-1.542.685-2.153.098-.61.326-1.572.507-2.137.18-.565.447-1.713.593-2.553.145-.84.326-1.603.401-1.696.076-.093.291-.957.478-1.919.188-.963.454-2.019.592-2.347.138-.329.304-1.004.369-1.5.065-.497.246-1.278.403-1.737.156-.458.413-1.546.571-2.416.158-.871.392-1.884.52-2.25.127-.367.379-1.417.559-2.334.181-.916.436-1.929.568-2.25.132-.32.293-1.033.359-1.583s.231-1.263.367-1.583c.136-.321.393-1.334.572-2.25.178-.917.428-1.967.556-2.334.127-.366.359-1.379.516-2.25.156-.871.381-1.773.499-2.005.118-.232.306-1.057.418-1.834.111-.776.305-1.613.43-1.859.125-.247.376-1.211.556-2.143.181-.932.404-1.785.496-1.896.092-.11.282-.916.423-1.791.14-.874.399-2.007.575-2.518.176-.511.408-1.515.517-2.233.108-.717.295-1.493.415-1.724.119-.232.344-1.132.5-2 .156-.869.383-1.739.504-1.932.122-.194.306-.981.41-1.75.103-.769.361-1.886.572-2.481.212-.596.439-1.534.506-2.084.066-.55.259-1.412.428-1.916.17-.504.434-1.705.588-2.667.578-3.614 1.688-4.709 2.465-2.431.497 1.457.599 1.897.775 3.329.099.814.287 1.686.417 1.938.13.251.358 1.122.506 1.935.149.814.373 1.719.5 2.013.126.293.345 1.193.485 2 .141.806.398 1.841.572 2.299.174.459.398 1.363.498 2.009.099.647.289 1.397.422 1.667s.36 1.091.505 1.824c.145.734.406 1.821.579 2.417.174.596.409 1.608.524 2.25.114.642.34 1.554.503 2.028.162.474.348 1.294.414 1.823.066.528.254 1.266.418 1.638.164.373.412 1.278.551 2.011.139.733.362 1.64.495 2.014.134.375.324 1.2.423 1.833.099.634.362 1.79.584 2.57.221.779.452 1.791.512 2.25.061.458.222 1.078.359 1.376.137.299.36 1.175.495 1.947.134.772.361 1.681.503 2.021.142.34.36 1.25.485 2.023.125.773.302 1.495.393 1.604.09.11.325 1.061.522 2.114.196 1.053.458 2.14.582 2.415.124.275.273.8.332 1.166.213 1.326.468 2.342.69 2.75.125.23.334 1.017.464 1.75.131.734.356 1.651.5 2.038.144.388.342 1.25.439 1.917.097.667.319 1.624.493 2.129.174.504.362 1.254.418 1.666.155 1.147 1.295 4.649 1.543 4.744.318.122 17.609.12 18.096-.002.555-.139 1.826-4.71 3.38-12.158.134-.642.359-1.617.5-2.167.14-.55.369-1.487.507-2.083.139-.596.366-1.571.505-2.167.4-1.715 1.202-5.252 1.645-7.246.223-1.006.516-2.168.651-2.583.135-.415.325-1.279.423-1.921.097-.642.283-1.504.413-1.917.13-.412.314-1.162.408-1.666.095-.505.28-1.367.412-1.917.131-.55.428-1.825.659-2.833.232-1.009.504-2.096.606-2.417.102-.321.328-1.258.503-2.083.517-2.446 1.317-5.947 1.483-6.493.085-.279.245-1.032.356-1.674.111-.642.37-1.692.575-2.333.204-.642.425-1.542.489-2 .064-.459.254-1.284.422-1.834.168-.55.459-1.75.647-2.666.522-2.541 1.127-5.197 1.501-6.584.186-.687.389-1.662.453-2.166s.213-1.158.333-1.452c.119-.294.338-1.194.485-2 .148-.806.41-1.915.584-2.465.173-.55.363-1.338.423-1.75.06-.413.209-1.097.33-1.522.122-.424.381-1.624.576-2.666.195-1.043.431-2.077.524-2.298.093-.222.316-1.132.494-2.022.179-.891.437-1.938.574-2.327.138-.39.328-1.205.424-1.812.095-.607.312-1.553.482-2.103.17-.55.471-1.788.67-2.75.807-3.912 1.14-5.339 1.389-5.962.144-.36.348-1.284.454-2.054.105-.769.254-1.475.332-1.569.16-.193.392-1.15.677-2.799.108-.623.292-1.23.41-1.348.118-.118.24-.395.272-.616l.056-.402h-18.985l-.274 1.5c-.151.825-.393 1.912-.538 2.417-.145.504-.316 1.327-.379 1.83-.064.502-.212 1.188-.331 1.523-.118.336-.342 1.313-.496 2.17-.154.858-.417 2.047-.584 2.643-.167.596-.425 1.759-.573 2.584-.149.825-.412 1.95-.585 2.5-.174.55-.366 1.487-.429 2.083-.062.596-.214 1.329-.337 1.629-.124.301-.38 1.426-.57 2.5-.189 1.075-.417 2.125-.505 2.334-.088.209-.313 1.259-.5 2.333-.187 1.075-.442 2.217-.567 2.539-.126.321-.319 1.184-.429 1.916-.11.733-.297 1.565-.415 1.849-.118.285-.265.847-.327 1.25-.226 1.481-.631 3.405-.751 3.567-.067.091-.217.841-.331 1.666-.115.825-.383 2.1-.597 2.834-.213.733-.477 1.889-.587 2.568-.109.679-.295 1.466-.413 1.75-.117.283-.303 1.115-.412 1.848-.109.734-.342 1.765-.518 2.292-.176.526-.4 1.539-.498 2.25-.099.71-.326 1.728-.505 2.262-.179.533-.437 1.765-.573 2.737-.137.972-.318 1.852-.404 1.955-.085.103-.312 1.065-.504 2.137-.192 1.073-.452 2.196-.578 2.497-.126.301-.315 1.183-.419 1.959-.105.776-.296 1.749-.425 2.161-.129.413-.321 1.216-.427 1.786-.397 2.131-1.762 1.998-2.131-.208-.438-2.619-.707-3.972-.837-4.221-.078-.15-.236-.836-.349-1.523-.114-.688-.376-1.775-.582-2.417-.207-.642-.433-1.652-.501-2.246-.069-.594-.226-1.367-.35-1.717-.124-.351-.373-1.402-.554-2.337-.181-.935-.438-2.006-.571-2.381-.132-.374-.322-1.202-.421-1.839-.099-.637-.357-1.718-.574-2.402-.217-.685-.449-1.727-.516-2.317-.067-.59-.22-1.265-.34-1.5-.12-.235-.346-1.103-.502-1.928-.156-.825-.423-1.95-.594-2.5-.171-.55-.36-1.375-.42-1.833-.06-.458-.326-1.658-.592-2.667-.265-1.008-.483-2.001-.483-2.207 0-.206-.145-.806-.323-1.334-.177-.527-.445-1.596-.596-2.375-.15-.78-.385-1.792-.522-2.25-.137-.459-.349-1.434-.47-2.167-.122-.733-.416-2.083-.653-3-.238-.917-.433-1.833-.434-2.035-.001-.203-.143-.728-.315-1.167-.172-.439-.396-1.418-.497-2.177-.101-.758-.332-1.733-.514-2.166-.182-.434-.414-1.425-.517-2.204-.102-.779-.248-1.491-.324-1.584-.202-.244-.627-2.011-.761-3.167-.064-.55-.221-1.206-.349-1.458-.128-.252-.338-1.152-.466-2-.128-.848-.378-1.88-.555-2.292-.178-.412-.416-1.512-.53-2.443-.184-1.503-.248-1.704-.566-1.79-.648-.174-18.414-.112-18.523.064-.056.091-.392 1.46-.747 3.042-.355 1.582-.771 3.402-.926 4.044-.155.641-.49 2.029-.745 3.083-.255 1.054-.515 2.254-.579 2.667-.063.412-.249 1.237-.413 1.833-.163.596-.392 1.608-.508 2.25-.115.642-.351 1.542-.522 2-.171.458-.312 1.011-.312 1.227 0 .501-.652 3.218-.826 3.44-.071.091-.213.737-.314 1.435-.101.698-.364 1.936-.584 2.75-.22.815-.517 2.044-.66 2.731-.572 2.756-1.11 5.065-1.352 5.804-.14.429-.34 1.342-.445 2.03-.105.687-.364 1.85-.576 2.583-.211.733-.432 1.671-.491 2.083-.059.413-.243 1.238-.41 1.834-.312 1.113-.754 3.034-1.437 6.25-.214 1.008-.537 2.358-.718 3-.18.641-.415 1.654-.522 2.25-.107.595-.254 1.158-.327 1.25-.074.091-.187.579-.251 1.083-.121.943-.787 3.878-1.514 6.667-.226.87-.555 2.258-.729 3.083-.175.825-.41 1.875-.523 2.333-.112.459-.267 1.098-.343 1.422-.537 2.294-1.897 1.007-2.3-2.178-.1-.783-.259-1.683-.355-2-.095-.317-.355-1.402-.577-2.41-.809-3.675-1.6-7.363-1.842-8.584-.137-.687-.364-1.708-.505-2.268-.257-1.022-.81-3.611-1.4-6.565-.174-.871-.434-1.996-.577-2.5-.143-.504-.404-1.706-.581-2.671-.176-.965-.4-1.963-.496-2.216-.097-.254-.333-1.377-.527-2.496-.193-1.118-.414-2.151-.49-2.295-.077-.144-.26-.949-.405-1.789-.146-.841-.415-2.012-.597-2.602-.183-.591-.436-1.736-.564-2.544-.127-.809-.381-1.995-.564-2.637-.182-.642-.386-1.578-.452-2.08-.067-.502-.226-1.213-.356-1.579-.129-.366-.349-1.375-.488-2.243-.14-.867-.293-1.64-.34-1.716-.047-.077-.304-1.169-.571-2.427-.267-1.259-.598-2.776-.737-3.372-.437-1.88-.933-4.194-1.251-5.833-.169-.871-.428-2.033-.577-2.583-.149-.55-.383-1.785-.52-2.743-.136-.959-.34-1.802-.452-1.873-.303-.192-18.913-.168-19.033.026m173.329 31.687c-3.241.385-4.22.552-5.231.895-.606.205-1.507.426-2.001.491-.495.065-1.17.259-1.5.432-.331.173-1.02.435-1.532.582-.512.146-1.075.365-1.25.486-.176.121-.619.316-.986.435-.366.119-.892.387-1.167.596-.275.208-.688.461-.917.56-.849.369-4.51 3.273-5.231 4.15-.102.123-.339.385-.529.583-.298.312-1.38 1.832-2.035 2.859-.117.184-.405.746-.641 1.25s-.572 1.212-.746 1.573c-.174.361-.317.755-.317.875s-.147.649-.327 1.177c-.91 2.666-.911 9.77-.002 12.418.181.527.331 1.052.334 1.166.003.115.228.656.5 1.204.272.547.495 1.063.495 1.145 0 .141.982 1.701 1.628 2.588.409.56 2.551 2.715 3.043 3.061 2.736 1.921 4.667 3.047 6.246 3.64.458.172 1.13.465 1.493.65.363.185.816.337 1.007.337.19 0 .643.152 1.006.339.363.186 1.185.456 1.827.6.642.143 1.343.372 1.558.509.216.136 1.093.353 1.95.482.856.129 1.917.373 2.358.543.44.17 1.558.399 2.484.508.926.109 2.076.348 2.556.53.481.183 1.261.414 1.734.515.473.1 1.048.313 1.277.474.229.16.651.342.938.404.287.063.769.334 1.072.604.302.271.602.492.665.492.064 0 .444.33.845.735 4.187 4.221 1.509 10.325-4.939 11.256-5.266.761-10.475-1.428-12.414-5.217-.195-.38-.464-.892-.598-1.139-.134-.246-.36-.958-.501-1.583-.142-.625-.387-1.473-.544-1.886l-.286-.75h-9.458c-8.222 0-9.481.033-9.628.25-.225.333-.054 2.118.342 3.584.173.641.404 1.616.511 2.166.263 1.341 1.078 3.812 1.584 4.807.226.444.412.894.414 1 .001.107.208.507.458.89s.716 1.125 1.034 1.65c.318.524.657 1.036.753 1.137.097.101.347.408.556.683 2.251 2.958 7.751 6.596 11.84 7.832.7.211 1.497.465 1.772.564.275.099 1.25.333 2.167.519.917.187 2.147.446 2.734.577 2.558.569 12.104.462 14.096-.158.457-.142 1.507-.403 2.333-.58 1.625-.349 3.744-1.041 5.337-1.743 1.357-.598 2.982-1.438 3.083-1.594.046-.07.356-.268.689-.439 1.544-.794 5.539-4.498 5.748-5.33.051-.206.194-.412.316-.459.123-.047.375-.43.561-.85.186-.421.454-.88.595-1.022.142-.141.306-.458.365-.704.059-.245.317-.859.573-1.363.256-.504.514-1.217.573-1.583.059-.367.229-.967.378-1.334.412-1.015.507-9.839.124-11.5-.148-.641-.369-1.616-.49-2.166-.122-.55-.413-1.375-.647-1.834-.234-.458-.475-1.034-.537-1.279-.061-.245-.254-.576-.429-.734-.175-.159-.319-.359-.319-.444 0-.25-1.341-2.092-2.162-2.971-.415-.444-.913-.979-1.107-1.189-.38-.413-1.277-1.2-1.916-1.683-1.379-1.041-2.233-1.616-2.398-1.616-.105 0-.485-.223-.845-.496-.36-.272-.77-.497-.911-.5-.141-.002-.554-.158-.917-.346-1.225-.633-4.051-1.54-7.327-2.352-.367-.09-1.267-.268-2-.394-3.285-.566-8.099-1.751-9.178-2.259-.372-.176-.769-.32-.881-.32-.112 0-.511-.169-.886-.375s-.887-.488-1.138-.625c-4.224-2.316-3.846-7.297.72-9.472 2.68-1.277 7.139-1.32 9.725-.094.657.311 1.25.566 1.316.566.916 0 3.649 3.62 4.247 5.627.328 1.098-.161 1.046 9.427.999l8.815-.043.047-1.911c.026-1.051-.028-2.213-.12-2.583-.502-2.019-.89-3.243-1.241-3.918-.217-.415-.445-.993-.509-1.284-.063-.292-.222-.619-.352-.727-.13-.108-.402-.527-.603-.93-.202-.403-.503-.857-.669-1.007-.167-.151-.303-.343-.303-.426 0-.149-.248-.436-1.588-1.843-1.013-1.063-3.747-3.337-4.454-3.705-.344-.179-.625-.374-.625-.433 0-.06-.244-.207-.542-.328-.298-.12-.804-.384-1.125-.586-.321-.202-.883-.461-1.25-.577-.366-.115-.826-.313-1.021-.44-.196-.127-.833-.37-1.417-.541-.584-.171-1.291-.429-1.571-.574-.28-.144-1.03-.336-1.666-.427-.637-.09-1.6-.317-2.14-.503-1.888-.651-7.695-1.122-10.185-.826m68.334.267c-2.845.145-4.699.388-5.288.692-.342.176-1.13.374-1.75.439-.621.065-1.36.26-1.641.432-.282.173-.92.397-1.417.498-.497.102-1.104.326-1.348.498-.243.173-.785.4-1.204.506-.418.105-.961.363-1.205.573-.244.21-.665.426-.934.48-.27.054-.691.253-.935.442-.86.666-1.617 1.159-2.182 1.422-.314.146-.713.447-.887.668-.174.221-.422.402-.551.402-.129 0-.357.188-.507.417-.15.229-.337.417-.415.417-.177 0-3.227 3.046-3.903 3.898-.275.347-.686.83-.914 1.074-.227.245-.527.639-.666.876-.738 1.261-.954 1.583-1.312 1.958-.216.226-.472.643-.569.927-.096.284-.351.729-.566.988-.214.259-.39.605-.39.768 0 .164-.175.556-.39.873-.215.316-.514.939-.666 1.384-.152.445-.382.928-.512 1.073-.13.145-.317.708-.417 1.25-.099.543-.282 1.105-.406 1.25-.308.362-.41.688-.614 1.965-.097.604-.313 1.406-.48 1.782-.185.413-.39 1.541-.52 2.85-.118 1.192-.323 2.385-.456 2.653-.371.744-.364 7.615.009 9.097.15.596.38 1.992.51 3.102.136 1.155.347 2.189.495 2.417.141.219.333.955.426 1.636.102.748.299 1.414.499 1.683.181.246.42.906.53 1.468.111.562.3 1.104.421 1.204.121.101.347.571.503 1.045.156.474.418 1.034.581 1.245.164.21.343.589.398.841.056.252.275.647.488.876.213.23.479.695.59 1.034.112.339.263.616.334.616.072 0 .31.348.529.774.219.425.548.944.732 1.151.183.208.558.685.833 1.062.838 1.145 3.051 3.732 3.325 3.885.142.08.258.244.258.366s.207.308.459.414c.252.106.938.64 1.524 1.187.587.547 1.16.994 1.273.994.113 0 .329.188.479.417.15.229.375.417.499.417s.328.124.454.277c.126.152.623.451 1.104.664.481.213.875.458.875.544 0 .085.25.238.556.339.306.101.798.362 1.093.58.296.217.814.447 1.152.509.339.063.767.254.951.425.184.172.777.427 1.318.568.54.14 1.101.363 1.248.494.146.131.565.286.932.346 1.37.221 2.351.474 2.917.754.377.187 1.22.33 2.385.406.991.065 2.214.225 2.717.356 1.296.337 8.824.338 9.992 0 .452-.13 1.572-.289 2.489-.352 1.041-.072 2.136-.27 2.917-.526.687-.225 1.733-.481 2.324-.568.591-.087 1.198-.269 1.349-.406.151-.137.708-.361 1.238-.499s1.16-.39 1.401-.56c.241-.171.7-.366 1.021-.436.321-.069.795-.303 1.055-.52.259-.218.671-.445.916-.505s.633-.251.862-.426c.795-.604 1.587-1.125 2.156-1.419.315-.162.737-.445.937-.629.689-.63 1.325-1.154 1.824-1.502.865-.604 2.992-2.853 4.49-4.748.326-.412.743-.902.926-1.089.184-.186.334-.422.334-.523 0-.101.263-.565.583-1.032.321-.466.584-.948.584-1.07 0-.123.154-.389.343-.592.19-.203.483-.772.653-1.265.169-.493.395-1.06.503-1.26.251-.469.24-.477-1.017-.695-.586-.101-1.403-.352-1.816-.557-.412-.205-1.2-.427-1.75-.493s-1.225-.256-1.5-.422c-.275-.166-1.011-.38-1.636-.476-.625-.096-1.466-.333-1.869-.528-.402-.195-1.231-.425-1.841-.511-.61-.087-1.307-.264-1.548-.394-.646-.347-1.504-.593-2.073-.593-.275 0-.883-.179-1.35-.398-.467-.219-1.262-.453-1.766-.52s-1.24-.273-1.635-.458c-.876-.41-1.447-.199-1.811.671-.468 1.119-2.784 3.705-3.319 3.705-.104 0-.369.177-.587.393-.219.216-.698.488-1.065.604-.366.117-.779.306-.916.42-.338.28-1.225.536-2.334.674-.504.062-1.169.217-1.478.344-.79.326-4.98.316-5.413-.012-.169-.128-.806-.282-1.416-.342-.688-.068-1.501-.294-2.14-.595-.568-.267-1.139-.486-1.269-.486-.131 0-.521-.225-.867-.5s-.691-.5-.767-.5c-.114 0-.624-.425-1.357-1.13-.645-.62-1.715-1.845-2.046-2.34-.226-.337-.53-.779-.678-.982-.147-.203-.338-.679-.423-1.058-.085-.379-.259-.793-.386-.92-.682-.683-.931-3.744-.341-4.208l.46-.362h24.54c22.104 0 24.562-.026 24.758-.262.124-.149.265-.955.33-1.882.061-.892.198-1.781.303-1.977.265-.496.238-2.982-.043-3.973-.128-.452-.282-1.797-.342-2.989-.141-2.791-.371-4.43-.744-5.302-.165-.384-.356-1.223-.424-1.864-.071-.659-.253-1.347-.418-1.583-.162-.23-.411-.887-.555-1.46-.144-.574-.376-1.157-.516-1.297-.14-.14-.305-.534-.367-.874-.132-.729-.513-1.537-.725-1.537-.082 0-.201-.243-.264-.541-.063-.298-.331-.874-.596-1.279-.265-.405-.482-.825-.482-.934 0-.108-.225-.432-.5-.719-.275-.288-.5-.637-.5-.777 0-.139-.225-.488-.5-.776-.275-.288-.5-.611-.5-.718 0-.108-.169-.352-.375-.543-.207-.191-.638-.674-.958-1.072-1.465-1.821-5.608-5.536-6.394-5.733-.229-.057-.458-.214-.509-.348-.052-.134-.422-.389-.824-.566-.401-.178-.82-.432-.93-.564-.11-.133-.439-.292-.73-.354-.292-.062-.76-.285-1.042-.496-.281-.211-.844-.472-1.25-.581-.406-.108-.863-.308-1.016-.444-.153-.137-.791-.363-1.417-.504-.626-.14-1.265-.367-1.42-.502-.154-.136-.942-.346-1.75-.467-.808-.121-1.919-.368-2.469-.55-1.568-.518-8.089-.818-12.666-.584M137.282 40.83l-9.135.087-.32.416c-.454.592-.517 73.892-.063 74.066.453.174 19.01.115 19.475-.062l.428-.162V41.732l-.55-.533c-.302-.293-.583-.515-.625-.494-.041.021-4.186.077-9.21.125m158.26.614c-.356.143-.301 74.818.055 74.955.592.227 23.521.111 23.712-.12.131-.158.197-6.361.229-21.625l.045-21.404.36-.843c.198-.464.415-1.214.482-1.667.067-.453.336-1.228.598-1.722.262-.494.477-.991.477-1.104 0-.114.113-.301.252-.416.139-.115.389-.518.557-.895.519-1.169 3.623-3.936 4.414-3.936.125 0 .577-.186 1.005-.414 1.205-.641 2.432-.75 8.405-.752 4.651-.001 5.63.04 6.042.253l.492.255v27.069c0 21.472.043 27.097.208 27.204.239.154 22.43.284 23.246.135l.538-.097.046-20.619c.035-16.056.091-20.698.252-20.979.114-.199.328-1.173.475-2.164.173-1.162.41-2.069.668-2.554.22-.413.4-.909.4-1.103 0-.193.224-.681.497-1.084.273-.404.498-.795.5-.87.004-.19 1.281-1.721 2.086-2.501 1.035-1.003 2.468-1.939 2.975-1.944.169-.001.508-.145.754-.32.823-.586 2.156-.682 9.459-.682 4.678 0 7.078-.058 7.149-.173.059-.095.143-3.638.186-7.875.062-6.04.133-7.954.332-8.869.421-1.935.28-2.944-.438-3.134-1.33-.352-12.395-.037-13.185.374-.393.205-1.168.446-1.721.535-.554.089-1.12.263-1.259.386-.138.124-.597.401-1.02.615-1.114.568-2.15 1.285-2.257 1.565-.052.133-.163.243-.249.243-.085 0-.485.356-.888.791-.404.436-.926.982-1.161 1.215-.234.233-.427.508-.427.612 0 .104-.182.406-.406.672-.223.265-.452.668-.509.896-.057.227-.47.729-.918 1.114l-.813.701-.26-.371c-.22-.314-.26-1.061-.26-4.831v-4.46l-.386-.096c-.211-.054-7.918-.074-17.125-.045l-16.739.052-.834.367c-.458.202-1.266.444-1.796.537-.539.095-1.2.347-1.5.573-.295.221-.781.455-1.079.518-.298.063-.541.183-.541.266 0 .083-.319.352-.709.597-.823.519-2.642 2.361-3.226 3.267-.222.343-.471.625-.554.625-.084 0-.235.25-.336.556-.101.306-.327.711-.503.899-.176.189-.434.615-.572.947-.306.733-.727.939-1.041.51-.177-.242-.226-1.289-.226-4.828 0-3.291-.054-4.572-.2-4.718-.201-.2-23.267-.287-23.758-.089m-39.459 15.699c.55.207 1.333.447 1.741.534.407.087.894.294 1.083.46.189.166.662.439 1.051.607.39.169.709.368.709.444 0 .075.216.249.481.386s.787.57 1.161.962c.374.393.824.864 1 1.048.176.183.483.647.683 1.03.2.383.466.782.592.886.125.104.28.428.343.72.063.291.248.719.412.951.658.932.862 3.55.321 4.131l-.34.365h-12.804c-15.412 0-14.018.293-13.448-2.834.255-1.402.4-1.833.615-1.833.08 0 .195-.304.254-.676.06-.371.284-.915.498-1.208.214-.293.47-.715.568-.939.191-.433.37-.643 1.617-1.89 1.228-1.227 1.486-1.454 1.657-1.454.087 0 .513-.225.948-.501.434-.275 1.133-.578 1.553-.672.42-.094.923-.258 1.118-.364 1.297-.707 6.458-.803 8.187-.153"/><path fill="#fbfbfb" d="M0 62.25v62.25h400V0H0v62.25M26.377 6.958c.144.161.311.592.372.959.061.366.215 1.004.343 1.416.211.68.702 2.976 1.353 6.334.134.687.423 1.962.643 2.833.22.871.486 2.146.59 2.833.105.688.26 1.336.345 1.441.086.105.303 1.08.484 2.167.181 1.087.398 2.163.482 2.392.182.498.456 1.796.598 2.834.056.412.24 1.2.409 1.75.168.55.393 1.6.499 2.333.106.733.332 1.749.503 2.257.171.508.365 1.408.431 2 .067.592.265 1.489.441 1.993s.457 1.667.624 2.583c.548 3.001 1.182 5.98 1.508 7.084.175.595.367 1.458.425 1.916.058.459.252 1.321.432 1.917.179.596.437 1.721.572 2.5.135.779.426 2.167.646 3.083.221.917.453 2.042.516 2.5.063.459.214 1.076.335 1.373.121.297.306 1.159.412 1.917.106.757.333 1.849.506 2.425.172.576.43 1.771.572 2.656.143.884.325 1.688.406 1.785.08.098.198.478.26.844.604 3.528 1.291 5.942 1.603 5.63.077-.077.222-.737.323-1.468s.322-1.741.492-2.246c.169-.504.393-1.442.498-2.083.105-.641.289-1.429.409-1.749.12-.321.344-1.259.499-2.084.154-.825.357-1.837.451-2.25.094-.412.284-1.312.422-2 .139-.687.429-1.812.645-2.5.216-.687.479-1.812.584-2.5.105-.687.284-1.475.398-1.75.113-.275.302-1.025.42-1.666.117-.642.32-1.58.45-2.084.131-.504.381-1.629.556-2.5.175-.871.463-2.077.639-2.68.176-.603.41-1.653.52-2.333.109-.68.304-1.537.432-1.903.129-.367.357-1.305.508-2.084.151-.779.344-1.55.429-1.713.086-.164.258-.876.383-1.584.124-.707.383-1.883.575-2.613.192-.729.466-2.003.609-2.83.144-.827.325-1.58.402-1.674.078-.093.297-.979.488-1.969.191-.99.451-2.002.578-2.25.126-.247.312-1.067.412-1.82.101-.754.285-1.616.411-1.917.125-.3.32-1.071.434-1.713.113-.642.315-1.617.449-2.167.134-.55.422-1.862.641-2.916.218-1.055.506-2.219.639-2.587.133-.369.293-1.081.355-1.583.062-.503.256-1.326.43-1.83.174-.505.436-1.667.581-2.584.22-1.378.338-1.731.684-2.041l.419-.375h9.537c11.003 0 10.172-.127 10.355 1.58.064.599.217 1.295.34 1.546.123.251.348 1.17.501 2.04.152.871.389 1.834.527 2.139.137.306.349 1.217.471 2.025.121.808.3 1.617.396 1.797.172.321.551 2.047.778 3.539.063.413.185.838.271.946.087.107.301 1.007.476 2 .175.992.432 2.067.572 2.388.139.321.36 1.22.491 2 .131.779.383 1.829.561 2.333.178.504.377 1.401.443 1.993.066.592.231 1.342.368 1.667.136.324.357 1.324.492 2.221.134.896.388 2.021.562 2.5.175.478.406 1.469.512 2.202.107.734.255 1.409.33 1.5.192.237.615 2.001.741 3.095.059.51.211 1.129.339 1.374.127.245.278.803.336 1.239.183 1.379.444 2.604.701 3.292.137.367.356 1.374.486 2.239.131.865.312 1.661.403 1.77.09.109.32 1.05.51 2.09.19 1.041.442 2.081.561 2.313.119.232.268.834.332 1.338.065.504.229 1.292.365 1.75.478 1.607.691 2.508.807 3.417.065.504.252 1.329.417 1.833.164.504.389 1.48.5 2.167.11.688.34 1.625.511 2.083.17.459.387 1.42.483 2.137.153 1.154 1.099 3.909 1.28 3.728.038-.038.177-.81.309-1.717.133-.906.35-2.023.485-2.481.379-1.297 1.09-4.511 1.362-6.166.136-.825.39-1.987.565-2.583.174-.597.437-1.792.583-2.657.147-.865.332-1.653.413-1.75.081-.098.274-.927.43-1.844.156-.917.418-2.117.582-2.667.164-.55.35-1.375.412-1.833.062-.458.29-1.508.506-2.333.217-.825.478-2.025.581-2.667.103-.642.293-1.542.421-2 .128-.458.424-1.808.657-3 .233-1.192.54-2.654.682-3.25.487-2.045.884-3.751 1.066-4.583.514-2.342.708-3.268.909-4.334.12-.641.419-2.029.664-3.083.699-3.011 1.215-5.303 1.521-6.75.156-.733.378-1.633.495-2 .117-.367.263-1.079.326-1.583.063-.505.253-1.442.423-2.084.169-.641.465-1.981.657-2.977.191-.996.387-1.874.435-1.951.047-.077.308-1.287.579-2.689.424-2.198.551-2.601.921-2.924l.428-.375h9.548c11.383 0 10.338-.245 9.768 2.283-.203.898-.504 2.308-.671 3.133-.166.825-.387 1.72-.491 1.989-.103.269-.341 1.28-.527 2.245-.186.966-.434 1.985-.551 2.264-.117.279-.264.882-.327 1.338-.064.457-.332 1.731-.596 2.831-.264 1.1-.753 3.2-1.087 4.667-.334 1.466-.682 2.966-.774 3.333-.091.367-.27 1.079-.397 1.583s-.502 2.192-.833 3.75c-.331 1.559-.749 3.396-.93 4.084-.536 2.039-.992 3.987-1.307 5.583-.164.825-.453 2.1-.643 2.833-.646 2.491-1.041 4.164-1.28 5.417-.131.688-.359 1.663-.507 2.167-.148.504-.409 1.666-.58 2.583-.17.917-.456 2.083-.635 2.593-.179.509-.38 1.334-.447 1.833-.067.499-.257 1.32-.422 1.824-.166.504-.392 1.442-.503 2.083-.11.642-.306 1.579-.434 2.084-.129.504-.349 1.516-.49 2.25-.141.733-.435 1.933-.654 2.666-.218.734-.479 1.892-.58 2.574-.1.683-.246 1.32-.325 1.417-.079.097-.272.851-.43 1.676-.158.825-.422 1.987-.586 2.583-.164.596-.348 1.421-.41 1.834-.062.412-.246 1.237-.411 1.833-.164.596-.391 1.533-.505 2.083-.114.55-.314 1.413-.444 1.917-.131.504-.416 1.742-.633 2.75-.218 1.008-.478 2.045-.577 2.303-.1.259-.261 1.009-.358 1.667-.098.658-.316 1.647-.487 2.197-.17.55-.435 1.666-.59 2.479-.155.814-.378 1.714-.497 2-.119.287-.306 1.121-.416 1.854-.11.733-.374 1.896-.586 2.583-.212.688-.439 1.656-.503 2.151-.064.495-.224 1.158-.356 1.474-.131.315-.382 1.352-.557 2.303-.364 1.979-.671 2.686-1.267 2.913-.465.177-18.859.228-19.313.053-.405-.155-1.01-1.61-1.332-3.2-.154-.764-.415-1.78-.58-2.259-.164-.479-.353-1.278-.42-1.777-.066-.499-.255-1.32-.42-1.824-.165-.505-.415-1.592-.556-2.417-.14-.825-.373-1.779-.516-2.119-.143-.341-.336-1.15-.428-1.799-.092-.649-.311-1.463-.488-1.809-.176-.346-.404-1.237-.505-1.979-.102-.743-.291-1.563-.419-1.822-.129-.26-.355-1.147-.502-1.972-.148-.825-.348-1.725-.447-2-.098-.275-.285-1.025-.416-1.667-.131-.641-.42-1.729-.643-2.416-.223-.688-.482-1.744-.575-2.347-.092-.603-.279-1.318-.413-1.588-.135-.27-.367-1.197-.516-2.061-.149-.864-.372-1.837-.495-2.162-.123-.326-.345-1.23-.492-2.009-.148-.779-.412-1.867-.587-2.417-.174-.55-.368-1.375-.43-1.833-.062-.458-.222-1.096-.355-1.417-.134-.321-.383-1.296-.554-2.166-.171-.871-.42-1.846-.554-2.167-.133-.321-.298-1.033-.365-1.583s-.297-1.587-.511-2.304c-.214-.718-.47-1.768-.569-2.334-.099-.566-.286-1.26-.416-1.541-.129-.282-.321-1.07-.425-1.75-.105-.681-.364-1.763-.577-2.405-.213-.641-.437-1.537-.498-1.99-.061-.453-.244-1.165-.406-1.583-.163-.418-.39-1.285-.505-1.927-.115-.641-.348-1.654-.518-2.25-.171-.596-.359-1.4-.418-1.788-.209-1.363-.482-1.401-.803-.112-.158.633-.391 1.563-.518 2.067-.128.504-.32 1.442-.428 2.083-.108.642-.289 1.355-.402 1.584-.114.229-.335 1.129-.492 2-.157.871-.388 1.808-.512 2.083-.125.275-.277.875-.338 1.333-.061.459-.26 1.359-.443 2-.183.642-.464 1.804-.625 2.584-.161.779-.408 1.754-.549 2.166-.142.413-.384 1.461-.539 2.33-.155.869-.379 1.769-.497 2-.118.231-.269.815-.334 1.298-.065.482-.265 1.344-.443 1.916-.179.572-.466 1.715-.637 2.54-.172.825-.43 1.95-.572 2.5-.429 1.651-1.118 4.595-1.346 5.75-.118.595-.407 1.833-.642 2.75-.235.916-.479 1.966-.542 2.333-.064.367-.179.79-.257.941-.078.151-.339 1.201-.581 2.333-.242 1.133-.504 2.182-.582 2.332-.078.149-.223.824-.322 1.5-.099.675-.322 1.677-.495 2.227-.174.55-.442 1.638-.596 2.417-.154.779-.373 1.604-.486 1.833-.114.23-.257.808-.318 1.286s-.289 1.415-.506 2.083c-.218.668-.485 1.805-.593 2.526-.109.722-.309 1.622-.446 2-.136.379-.424 1.476-.639 2.439-1.035 4.631-1.198 5.13-1.773 5.428-.638.33-19.423.358-19.854.03-.384-.293-.922-1.836-1.209-3.471-.134-.763-.323-1.626-.419-1.918-.096-.291-.364-1.382-.596-2.425-.231-1.042-.529-2.344-.662-2.894-.133-.55-.345-1.525-.472-2.167-.127-.642-.356-1.692-.509-2.333-.918-3.85-1.273-5.461-1.429-6.483-.096-.632-.24-1.271-.32-1.42-.144-.269-.348-1.188-.682-3.079-.096-.539-.283-1.242-.416-1.562-.134-.319-.32-1.078-.415-1.685-.094-.608-.353-1.742-.574-2.521-.222-.78-.454-1.867-.516-2.417-.062-.55-.171-1.075-.244-1.167-.072-.091-.29-.991-.486-2-.195-1.008-.497-2.321-.672-2.916-.174-.596-.401-1.571-.505-2.167-.103-.596-.332-1.571-.51-2.167-.177-.596-.431-1.645-.564-2.333-.486-2.519-1.247-6.015-1.343-6.171-.054-.087-.238-.854-.408-1.702-.17-.849-.504-2.309-.741-3.245-.237-.935-.432-1.926-.432-2.202 0-.275-.139-.86-.31-1.299-.171-.439-.395-1.376-.498-2.083-.103-.707-.334-1.719-.513-2.25-.178-.531-.414-1.565-.523-2.298-.109-.733-.339-1.763-.511-2.288-.172-.525-.396-1.537-.5-2.25-.103-.712-.319-1.595-.481-1.962-.161-.367-.344-1.079-.406-1.583-.061-.505-.29-1.517-.509-2.25-.219-.734-.483-1.968-.586-2.743-.104-.776-.247-1.526-.319-1.667-.157-.307-.619-2.295-.772-3.323-.06-.404-.206-.966-.324-1.25-.118-.285-.34-1.192-.493-2.017-.153-.825-.413-1.916-.579-2.424-.166-.508-.356-1.408-.423-2-.067-.592-.259-1.489-.427-1.993-.167-.504-.428-1.666-.58-2.582-.151-.916-.379-1.915-.506-2.22-.128-.305-.305-1.137-.395-1.85-.089-.712-.321-1.699-.516-2.194-.195-.494-.425-1.28-.511-1.747-.086-.466-.306-1.14-.487-1.496-.403-.789-.412-1.045-.055-1.44.418-.462 19.853-.474 20.268-.013m162.456 31.58c.505.136 1.48.381 2.167.546.688.164 1.393.371 1.569.461.175.089.785.26 1.356.379.571.12 1.368.368 1.771.551.403.184.948.388 1.213.455.822.206 4.582 2.187 5.17 2.723.186.17.506.36.713.422.206.063.375.182.375.264 0 .083.183.246.406.364.948.498 2.763 2.312 4.968 4.965.778.936 2.247 3.808 2.982 5.832.481 1.325.607 7.356.165 7.89-.208.251-1.048.277-9.183.277h-8.954l-.58-.564c-.437-.424-.646-.83-.847-1.644-.589-2.387-2.816-4.709-5.186-5.408-.47-.138-.96-.338-1.088-.443-.558-.457-4.745-.348-6.319.163-2.059.669-4.031 2.128-4.031 2.982 0 .113-.113.3-.25.414-.637.529.203 4.166.963 4.166.074 0 .333.198.575.44.242.242.782.588 1.201.77.418.182.873.426 1.011.542.137.116.737.325 1.333.465s1.513.411 2.038.602c.525.192 1.466.421 2.092.509.626.089 1.396.269 1.712.4.316.131 1.437.361 2.492.511 1.054.15 2.404.415 3 .589.595.175 1.345.366 1.666.426.802.151 3.806 1.157 4.417 1.48.275.145.581.265.679.265.225.002 2.792 1.323 2.904 1.496.046.07.406.29.799.49.393.199.856.491 1.028.647.172.157.671.547 1.108.868 1.044.767 3.899 3.658 3.899 3.95 0 .125.116.272.257.326.142.055.436.451.654.881.218.429.514.879.659.999.145.12.263.311.263.425 0 .113.218.614.484 1.112.266.498.697 1.503.958 2.232l.475 1.325V98.75l-.458 1.276c-.453 1.267-1.437 3.34-1.964 4.141-1.723 2.617-1.725 2.619-3.156 4.083-1.412 1.445-3.406 3.021-4.579 3.62-.36.184-.753.432-.872.551-.118.119-.573.348-1.01.509-.437.161-.907.387-1.045.502-.137.115-.475.263-.75.33s-.95.325-1.5.573c-.55.249-1.37.507-1.823.573-.453.067-1.166.256-1.584.419-2.892 1.133-10.588 1.613-15.009.936-.963-.147-2.493-.38-3.402-.517-.908-.137-1.733-.317-1.833-.4-.1-.083-.801-.268-1.557-.412-.756-.143-1.656-.404-2.001-.58-.344-.175-.963-.409-1.375-.519-.412-.11-.866-.304-1.01-.432-.143-.128-.518-.322-.833-.431-.315-.11-.906-.411-1.314-.669-.407-.258-.808-.47-.89-.47-.082 0-.349-.153-.592-.339-.244-.187-.93-.693-1.525-1.125-1.957-1.422-4.333-3.733-5.091-4.952-.171-.275-.427-.622-.569-.77-.545-.568-2.508-4.217-2.508-4.662 0-.108-.144-.43-.32-.715-.176-.286-.406-.999-.511-1.585-.106-.585-.345-1.448-.533-1.916-1.122-2.809-1.568-5.733-.987-6.464.598-.752 1.311-.805 10.917-.805 10.762 0 10.285-.109 10.529 2.417.073.754.282 1.519.592 2.164.264.548.479 1.087.479 1.196 0 .11.094.298.209.419.114.122.411.492.658.824.248.332.69.819.984 1.083.293.264.699.649.902.855.203.207.467.375.586.375.12 0 .613.224 1.097.497.848.478 1.352.605 4.073 1.02 1.749.267 5.156-.282 6.366-1.026.438-.27.842-.491.897-.491.326 0 1.402-1.414 1.803-2.368 1.083-2.578.002-5.573-2.528-7-.484-.273-.88-.556-.88-.629 0-.073-.272-.183-.605-.246-.332-.062-1.017-.296-1.521-.518-.504-.223-1.413-.482-2.02-.574-.607-.093-1.409-.281-1.781-.418-.372-.138-1.541-.391-2.598-.564-1.057-.172-2.14-.426-2.407-.564-.267-.138-.935-.305-1.485-.372-.55-.066-1.438-.303-1.973-.525-.535-.223-1.391-.482-1.901-.577-.51-.094-1.085-.269-1.277-.389-.192-.12-.761-.344-1.265-.498-.844-.258-2.274-.862-3.084-1.302-.183-.099-.708-.38-1.166-.625-.459-.244-1.196-.699-1.64-1.012-.443-.313-.995-.693-1.227-.844-3.355-2.198-6.504-6.819-7.415-10.883-1.661-7.402.053-15.42 4.233-19.815.348-.365.632-.709.632-.763 0-.054.38-.436.845-.848.465-.412 1.04-.955 1.278-1.207.238-.252.528-.459.646-.459s.275-.107.348-.239c.17-.303 2.378-1.761 2.667-1.761.119 0 .216-.075.216-.168 0-.092.431-.382.958-.643.527-.262 1.184-.598 1.459-.748.275-.149.595-.272.712-.273.116-.001.691-.218 1.277-.484.585-.265 1.382-.536 1.771-.602.388-.066.938-.216 1.223-.335.703-.294 3.659-1.084 4.683-1.252 1.443-.236 10.198-.073 11.25.21m67.241.051c.183.138.688.246 1.166.248 1.73.006 5.285.474 5.706.75.23.151.842.315 1.361.366.518.05 1.393.297 1.943.548.55.25 1.3.509 1.667.575.366.065.779.219.916.342.138.123.682.384 1.209.581.527.197.958.425.958.506 0 .082.319.239.708.35.39.111.859.33 1.042.488.183.157.633.448 1 .645.753.405 1.667 1.044 2.177 1.523.19.177.402.322.472.322.342 0 3.813 3.274 4.684 4.419.275.362.744.931 1.042 1.265.298.333.542.678.542.766 0 .087.187.335.416.55.23.216.417.478.417.584 0 .105.181.362.403.57.222.209.497.616.611.904.113.289.335.676.492.859.158.183.38.633.494 1 .114.367.342.817.506 1 .163.183.379.642.48 1.02.1.378.322.865.494 1.084.172.218.402.828.511 1.355.11.527.263.958.341.958.177 0 .604 1.34.744 2.333.058.412.246 1.05.418 1.417.175.374.389 1.397.486 2.333.095.917.255 2.004.355 2.417.447 1.844.636 7.771.356 11.141-.11 1.332-.142 1.416-.734 1.958l-.619.567h-24.58c-23.357 0-24.587.015-24.738.296-.201.376.058 1.83.392 2.199.135.149.336.68.448 1.18.113.502.414 1.168.672 1.488.257.319.468.669.468.778 0 .459 2.776 3.268 3.697 3.74.338.173.66.39.717.481.057.092.53.29 1.053.439.522.149 1.073.38 1.224.512 1.093.959 9.317.867 11.276-.127.522-.265 1.07-.482 1.217-.484.147-.001.47-.189.717-.418.247-.229.527-.417.621-.417.166 0 1.406-.949 2.004-1.533.159-.155.41-.515.557-.8.147-.285.376-.559.507-.609.132-.051.321-.403.42-.783.306-1.17 1.988-1.565 3.288-.773.302.184 1.036.404 1.632.488.596.084 1.408.311 1.805.503.398.192 1.378.456 2.178.585.801.13 1.579.347 1.73.484.15.136.799.336 1.44.445.642.109 1.429.336 1.75.504.321.169 1.097.381 1.724.473.628.091 1.452.328 1.832.526.38.198 1.173.428 1.762.511.588.084 1.31.301 1.604.482.294.182.722.33.951.33 1.166 0 1.581 1.126.805 2.184-.175.239-.398.731-.496 1.095-.098.363-.359.83-.581 1.038-.221.208-.451.638-.511.956-.059.318-.209.617-.332.664-.123.047-.4.418-.615.825-.216.406-.447.738-.513.738-.067 0-.231.212-.364.47-.354.685-1.227 1.691-3.39 3.905-.694.711-1.311 1.292-1.372 1.292-.06 0-.405.262-.765.583-.36.321-.74.583-.844.584-.105 0-.313.187-.463.416-.15.23-.383.417-.519.417-.135 0-.393.147-.572.326-.18.18-.616.474-.97.655-.354.18-.738.442-.853.582-.116.139-.476.341-.8.448-.324.107-.726.331-.893.497-.167.167-.579.38-.917.473-.338.093-.747.291-.911.439-.163.148-.772.379-1.352.515-.58.135-1.206.383-1.391.551-.206.187-.808.374-1.543.479-.664.096-1.316.284-1.45.418-.277.276-.736.376-2.794.605-.798.089-1.698.297-2 .462-.815.445-12.8.458-13.967.016-.412-.157-1.568-.4-2.568-.54-1-.141-1.996-.372-2.212-.514-.217-.142-.824-.333-1.349-.426-1.055-.185-1.871-.465-1.871-.641 0-.064-.393-.215-.875-.336-.481-.122-1.063-.353-1.293-.515-.23-.161-.735-.378-1.123-.483-.387-.104-.904-.374-1.147-.6-.244-.226-.571-.411-.727-.411-.156 0-.414-.145-.575-.323-.16-.177-.623-.478-1.027-.668-.405-.19-.866-.461-1.026-.601-.731-.645-1.752-1.408-1.884-1.408-.079 0-.404-.244-.721-.542-.317-.298-1.035-.954-1.595-1.458s-1.11-1.017-1.221-1.14c-1.874-2.068-2.349-2.623-2.911-3.396-.298-.411-.541-.815-.541-.899 0-.083-.15-.245-.334-.36-.183-.114-.333-.314-.333-.444 0-.129-.189-.459-.419-.733-.23-.274-.529-.762-.664-1.085-.135-.323-.326-.637-.424-.697-.098-.061-.364-.516-.591-1.012-.226-.495-.477-.901-.557-.901-.08 0-.237-.393-.349-.875-.112-.481-.339-1.025-.505-1.208-.165-.183-.391-.708-.503-1.167-.111-.458-.305-.953-.432-1.1-.127-.148-.344-.812-.483-1.477-.138-.666-.4-1.499-.58-1.853-.193-.378-.392-1.258-.483-2.138-.085-.822-.227-1.632-.316-1.798-.831-1.551-.925-13.434-.114-14.384.117-.137.296-1.057.397-2.043.123-1.188.302-2.024.533-2.476.191-.374.42-1.142.508-1.706.088-.563.294-1.212.456-1.441.163-.229.389-.844.504-1.365.114-.522.346-1.124.516-1.339.169-.215.389-.696.489-1.067.1-.372.325-.805.499-.963.174-.158.397-.606.495-.996.099-.39.331-.847.518-1.016.186-.168.338-.41.338-.538 0-.127.193-.424.428-.659.236-.236.492-.596.57-.801.187-.492 1.511-2.256 1.693-2.256.078 0 .143-.11.143-.245 0-.268.236-.533 2.713-3.047.925-.94 1.752-1.708 1.836-1.708.084 0 .3-.188.48-.417.181-.229.438-.417.571-.417.134 0 .288-.115.342-.256.054-.141.333-.376.62-.523.286-.147.695-.439.908-.65.213-.211.607-.431.877-.49.269-.059.563-.246.653-.414.09-.169.446-.399.79-.511.345-.112.8-.339 1.012-.504.212-.165.662-.389 1-.499.338-.109.804-.332 1.037-.495.232-.163.719-.35 1.083-.417s1.012-.303 1.44-.525c.429-.222 1.238-.469 1.798-.548.561-.079 1.335-.292 1.721-.472.506-.235 1.517-.403 3.614-.598 1.601-.149 2.985-.344 3.075-.434.283-.284 6.95-.201 7.337.092m-108.258 1.812.351.317v37.371c0 34.56-.021 37.387-.276 37.599-.502.416-20.577.33-21.042-.09l-.353-.32.044-37.216c.039-33.402.07-37.243.302-37.476.676-.675 20.242-.848 20.974-.185m171.758.636c.217.31.261 1.05.271 4.542.013 4.722.086 5.202.628 4.141.195-.384.433-.745.527-.803.095-.059.279-.364.411-.678.131-.315.314-.572.406-.572.092 0 .284-.244.427-.542.51-1.065 3.625-3.91 4.608-4.209.219-.067.548-.257.731-.423.184-.167.709-.397 1.167-.511.458-.115 1.07-.349 1.36-.52.982-.579 3.754-.68 20.405-.741l15.931-.058.569.383.568.383.084 3.861c.085 3.94.249 4.89.66 3.81.095-.25.173-.511.173-.58 0-.068.225-.34.5-.603.275-.264.5-.576.5-.694 0-.119.188-.338.417-.488.229-.15.416-.366.416-.48 0-.27 1.849-2.002 2.496-2.336.277-.143.504-.326.504-.405 0-.079.323-.296.718-.481.395-.186.811-.45.925-.587.114-.138.597-.337 1.074-.443.477-.106 1.158-.348 1.515-.538 1.473-.786 14.831-1.086 15.429-.347.393.485.304 14.876-.098 15.861-.15.367-.229 1.239-.229 2.516 0 2.755.86 2.482-8.006 2.54-6.572.043-7.465.08-7.891.327-.264.154-.977.412-1.584.575-.606.162-1.201.43-1.32.595-.12.166-.346.301-.502.301-.156 0-.827.582-1.492 1.292-.665.71-1.358 1.45-1.541 1.643-.182.193-.417.606-.521.917-.104.311-.323.715-.486.898-.163.184-.346.634-.406 1-.138.836-.408 1.59-.691 1.925-.462.548-.56 4.848-.56 24.774v20.032l-.371.26c-.435.305-24.486.398-24.963.096-.22-.139-.26-3.424-.333-27.372l-.083-27.215h-11.834l-1.083.439c-.596.242-1.357.488-1.692.547-.335.059-.645.199-.688.312-.043.114-.425.379-.847.59-.423.211-.826.479-.896.596-.07.117-.271.291-.448.387-.356.194-1.066 1.125-1.597 2.095-.19.347-.481.767-.647.933-.165.165-.349.601-.408.968-.058.366-.258.859-.443 1.095-.231.293-.411.946-.572 2.067-.129.901-.311 1.975-.403 2.388-.504 2.244-.526 3.163-.526 22.352 0 15.008-.046 19.628-.2 19.781-.264.265-24.151.291-24.644.028-.334-.179-.528-74.934-.195-75.425.366-.54.791-.559 12.655-.564l11.865-.005.26.37m-69.289 16.48c-.164.096-1.064.292-2 .437-1.259.194-1.82.361-2.156.64-.25.208-.686.429-.969.491-.647.142-3.558 2.97-3.716 3.61-.061.246-.284.658-.496.917-.212.259-.477.88-.588 1.38-.112.5-.319 1.037-.46 1.193-.165.183-.267.659-.287 1.341l-.03 1.057 12.864.043c12.796.042 12.864.041 12.971-.295.141-.448-.03-1.227-.496-2.248-.209-.458-.43-1.112-.491-1.453-.061-.342-.21-.679-.332-.75-.121-.072-.339-.355-.483-.63-.145-.275-.455-.718-.69-.984-.234-.267-.426-.581-.426-.699s-.22-.345-.488-.503c-.269-.159-.522-.418-.563-.575-.041-.158-.299-.336-.572-.396-.273-.06-.709-.331-.968-.601-.259-.271-.58-.492-.712-.492-.133 0-.493-.156-.801-.346-.308-.19-1.247-.487-2.087-.659-.84-.172-1.605-.391-1.701-.487-.228-.228-3.929-.22-4.323.009"/><path fill="#9da4a4" d="M6.109 6.971c-.357.395-.348.651.055 1.44.181.356.401 1.03.487 1.496.086.467.316 1.253.511 1.747.195.495.427 1.482.516 2.194.09.713.267 1.545.395 1.85.127.305.355 1.304.506 2.22.152.916.413 2.078.58 2.582.168.504.36 1.401.427 1.993.067.592.257 1.492.423 2 .166.508.426 1.599.579 2.424.153.825.375 1.732.493 2.017.118.284.264.846.324 1.25.153 1.028.615 3.016.772 3.323.072.141.215.891.319 1.667.103.775.367 2.009.586 2.743.219.733.448 1.745.509 2.25.062.504.245 1.216.406 1.583.162.367.378 1.25.481 1.962.104.713.328 1.725.5 2.25.172.525.402 1.555.511 2.288.109.733.345 1.767.523 2.298.179.531.41 1.543.513 2.25.103.707.327 1.644.498 2.083.171.439.31 1.024.31 1.299 0 .276.195 1.267.432 2.202.237.936.571 2.396.741 3.245.17.848.354 1.615.408 1.702.096.156.857 3.652 1.343 6.171.133.688.387 1.737.564 2.333.178.596.407 1.571.51 2.167.104.596.331 1.571.505 2.167.175.595.477 1.908.672 2.916.196 1.009.414 1.909.486 2 .073.092.182.617.244 1.167s.294 1.637.516 2.417c.221.779.48 1.913.574 2.521.095.607.281 1.366.415 1.685.133.32.32 1.023.416 1.562.334 1.891.538 2.81.682 3.079.08.149.224.788.32 1.42.156 1.022.511 2.633 1.429 6.483.153.641.382 1.691.509 2.333.127.642.339 1.617.472 2.167.133.55.431 1.852.662 2.894.232 1.043.5 2.134.596 2.425.096.292.285 1.155.419 1.918.287 1.635.825 3.178 1.209 3.471.431.328 19.216.3 19.854-.03.575-.298.738-.797 1.773-5.428.215-.963.503-2.06.639-2.439.137-.378.337-1.278.446-2 .108-.721.375-1.858.593-2.526.217-.668.445-1.605.506-2.083.061-.478.204-1.056.318-1.286.113-.229.332-1.054.486-1.833.154-.779.422-1.867.596-2.417.173-.55.396-1.552.495-2.227.099-.676.244-1.351.322-1.5.078-.15.34-1.199.582-2.332.242-1.132.503-2.182.581-2.333.078-.151.193-.574.257-.941.063-.367.307-1.417.542-2.333.235-.917.524-2.155.642-2.75.228-1.155.917-4.099 1.346-5.75.142-.55.4-1.675.572-2.5.171-.825.458-1.968.637-2.54.178-.572.378-1.434.443-1.916.065-.483.216-1.067.334-1.298.118-.231.342-1.131.497-2 .155-.869.397-1.917.539-2.33.141-.412.388-1.387.549-2.166.161-.78.442-1.942.625-2.584.183-.641.382-1.541.443-2 .061-.458.213-1.058.338-1.333.124-.275.355-1.212.512-2.083.157-.871.378-1.771.492-2 .113-.229.294-.942.402-1.584.108-.641.3-1.579.428-2.083.127-.504.36-1.434.518-2.067.321-1.289.594-1.251.803.112.059.388.247 1.192.418 1.788.17.596.403 1.609.518 2.25.115.642.342 1.509.505 1.927.162.418.345 1.13.406 1.583.061.453.285 1.349.498 1.99.213.642.472 1.724.577 2.405.104.68.296 1.468.425 1.75.13.281.317.975.416 1.541.099.566.355 1.616.569 2.334.214.717.444 1.754.511 2.304.067.55.232 1.262.365 1.583.134.321.383 1.296.554 2.167.171.87.42 1.845.554 2.166.133.321.293.959.355 1.417.062.458.256 1.283.43 1.833.175.55.439 1.638.587 2.417.147.779.369 1.683.492 2.009.123.325.346 1.298.495 2.162.149.864.381 1.791.516 2.061.134.27.321.985.413 1.588.093.603.352 1.659.575 2.347.223.687.512 1.775.643 2.416.131.642.318 1.392.416 1.667.099.275.299 1.175.447 2 .147.825.373 1.712.502 1.972.128.259.317 1.079.419 1.822.101.742.329 1.633.505 1.979.177.346.396 1.16.488 1.809.092.649.285 1.458.428 1.799.143.34.376 1.294.516 2.119.141.825.391 1.912.556 2.417.165.504.354 1.325.42 1.824.067.499.256 1.298.42 1.777.165.479.426 1.495.58 2.259.322 1.59.927 3.045 1.332 3.2.454.175 18.848.124 19.313-.053.596-.227.903-.934 1.267-2.913.175-.951.426-1.988.557-2.303.132-.316.292-.979.356-1.474s.291-1.463.503-2.151c.212-.687.476-1.85.586-2.583.11-.733.297-1.567.416-1.854.119-.286.342-1.186.497-2 .155-.813.42-1.929.59-2.479.171-.55.389-1.539.487-2.197.097-.658.258-1.408.358-1.667.099-.258.359-1.295.577-2.303.217-1.008.502-2.246.633-2.75.13-.504.33-1.367.444-1.917.114-.55.341-1.487.505-2.083.165-.596.349-1.421.411-1.833.062-.413.246-1.238.41-1.834.164-.596.428-1.758.586-2.583.158-.825.351-1.579.43-1.676.079-.097.225-.734.325-1.417.101-.682.362-1.84.58-2.574.219-.733.513-1.933.654-2.666.141-.734.361-1.746.49-2.25.128-.505.324-1.442.434-2.084.111-.641.337-1.579.503-2.083.165-.504.355-1.325.422-1.824.067-.499.268-1.324.447-1.833.179-.51.465-1.676.635-2.593.171-.917.432-2.079.58-2.583.148-.504.376-1.479.507-2.167.239-1.253.634-2.926 1.28-5.417.19-.733.479-2.008.643-2.833.315-1.596.771-3.544 1.307-5.583.181-.688.599-2.525.93-4.084.331-1.558.706-3.246.833-3.75s.306-1.216.397-1.583c.092-.367.44-1.867.774-3.333.334-1.467.823-3.567 1.087-4.667.264-1.1.532-2.374.596-2.831.063-.456.21-1.059.327-1.338.117-.279.365-1.298.551-2.264.186-.965.424-1.976.527-2.245.104-.269.325-1.164.491-1.989.167-.825.468-2.235.671-3.133.57-2.528 1.615-2.283-9.768-2.283h-9.548l-.428.375c-.37.323-.497.726-.921 2.924-.271 1.402-.532 2.612-.579 2.689-.048.077-.244.955-.435 1.951-.192.996-.488 2.336-.657 2.977-.17.642-.36 1.579-.423 2.084-.063.504-.209 1.216-.326 1.583-.117.367-.339 1.267-.495 2-.306 1.447-.822 3.739-1.521 6.75-.245 1.054-.544 2.442-.664 3.083-.201 1.066-.395 1.992-.909 4.334-.182.832-.579 2.538-1.066 4.583-.142.596-.449 2.058-.682 3.25-.233 1.192-.529 2.542-.657 3-.128.458-.318 1.358-.421 2-.103.642-.364 1.842-.581 2.667-.216.825-.444 1.875-.506 2.333-.062.458-.248 1.283-.412 1.833-.164.55-.426 1.75-.582 2.667-.156.917-.349 1.746-.43 1.844-.081.097-.266.885-.413 1.75-.146.865-.409 2.06-.583 2.657-.175.596-.429 1.758-.565 2.583-.272 1.655-.983 4.869-1.362 6.166-.135.458-.352 1.575-.485 2.481-.132.907-.271 1.679-.309 1.717-.181.181-1.127-2.574-1.28-3.728-.096-.717-.313-1.678-.483-2.137-.171-.458-.401-1.395-.511-2.083-.111-.687-.336-1.663-.5-2.167-.165-.504-.352-1.329-.417-1.833-.116-.909-.329-1.81-.807-3.417-.136-.458-.3-1.246-.365-1.75-.064-.504-.213-1.106-.332-1.338-.119-.232-.371-1.272-.561-2.313-.19-1.04-.42-1.981-.51-2.09-.091-.109-.272-.905-.403-1.77-.13-.865-.349-1.872-.486-2.239-.257-.688-.518-1.913-.701-3.292-.058-.436-.209-.994-.336-1.239-.128-.245-.28-.864-.339-1.374-.126-1.094-.549-2.858-.741-3.095-.075-.091-.223-.766-.33-1.5-.106-.733-.337-1.724-.512-2.202-.174-.479-.428-1.604-.562-2.5-.135-.897-.356-1.897-.492-2.221-.137-.325-.302-1.075-.368-1.667-.066-.592-.265-1.489-.443-1.993s-.43-1.554-.561-2.333c-.131-.78-.352-1.679-.491-2-.14-.321-.397-1.396-.572-2.388-.175-.993-.389-1.893-.476-2-.086-.108-.208-.533-.271-.946-.227-1.492-.606-3.218-.778-3.539-.096-.18-.275-.989-.396-1.797-.122-.808-.334-1.719-.471-2.025-.138-.305-.375-1.268-.527-2.139-.153-.87-.378-1.789-.501-2.04-.123-.251-.276-.947-.34-1.546-.183-1.707.648-1.58-10.355-1.58h-9.537l-.419.375c-.346.31-.464.663-.684 2.041-.145.917-.407 2.079-.581 2.584-.174.504-.368 1.327-.43 1.83-.062.502-.222 1.214-.355 1.583-.133.368-.421 1.532-.639 2.587-.219 1.054-.507 2.366-.641 2.916-.134.55-.336 1.525-.449 2.167-.114.642-.309 1.413-.434 1.713-.126.301-.31 1.163-.411 1.917-.1.753-.286 1.573-.412 1.82-.127.248-.387 1.26-.578 2.25-.191.99-.41 1.876-.488 1.969-.077.094-.258.847-.402 1.674-.143.827-.417 2.101-.609 2.83-.192.73-.451 1.906-.575 2.613-.125.708-.297 1.42-.383 1.584-.085.163-.278.934-.429 1.713-.151.779-.379 1.717-.508 2.084-.128.366-.323 1.223-.432 1.903-.11.68-.344 1.73-.52 2.333-.176.603-.464 1.809-.639 2.68-.175.871-.425 1.996-.556 2.5-.13.504-.333 1.442-.45 2.084-.118.641-.307 1.391-.42 1.666-.114.275-.293 1.063-.398 1.75-.105.688-.368 1.813-.584 2.5-.216.688-.506 1.813-.645 2.5-.138.688-.328 1.588-.422 2-.094.413-.297 1.425-.451 2.25-.155.825-.379 1.763-.499 2.084-.12.32-.304 1.108-.409 1.749-.105.641-.329 1.579-.498 2.083-.17.505-.391 1.515-.492 2.246-.101.731-.246 1.391-.323 1.468-.312.312-.999-2.102-1.603-5.63-.062-.366-.18-.746-.26-.844-.081-.097-.263-.901-.406-1.785-.142-.885-.4-2.08-.572-2.656-.173-.576-.4-1.668-.506-2.425-.106-.758-.291-1.62-.412-1.917-.121-.297-.272-.914-.335-1.373-.063-.458-.295-1.583-.516-2.5-.22-.916-.511-2.304-.646-3.083-.135-.779-.393-1.904-.572-2.5-.18-.596-.374-1.458-.432-1.917-.058-.458-.25-1.321-.425-1.916-.326-1.104-.96-4.083-1.508-7.084-.167-.916-.448-2.079-.624-2.583s-.374-1.401-.441-1.993c-.066-.592-.26-1.492-.431-2-.171-.508-.397-1.524-.503-2.257-.106-.733-.331-1.783-.499-2.333-.169-.55-.353-1.338-.409-1.75-.142-1.038-.416-2.336-.598-2.834-.084-.229-.301-1.305-.482-2.392s-.398-2.062-.484-2.167c-.085-.105-.24-.753-.345-1.441-.104-.687-.37-1.962-.59-2.833-.22-.871-.509-2.146-.643-2.833-.651-3.358-1.142-5.654-1.353-6.334-.128-.412-.282-1.05-.343-1.416-.223-1.345.576-1.25-10.499-1.25-9.345 0-9.88.016-10.141.304m19.678.33c.112.071.316.914.452 1.873.137.958.371 2.193.52 2.743.149.55.408 1.712.577 2.583.318 1.639.814 3.953 1.251 5.833.139.596.47 2.113.737 3.372.267 1.258.524 2.35.571 2.427.047.076.2.849.34 1.716.139.868.359 1.877.488 2.243.13.366.289 1.077.356 1.579.066.502.27 1.438.452 2.08.183.642.437 1.828.564 2.637.128.808.381 1.953.564 2.544.182.59.451 1.761.597 2.602.145.84.328 1.645.405 1.789.076.144.297 1.177.49 2.295.194 1.119.43 2.242.527 2.496.096.253.32 1.251.496 2.216.177.965.438 2.167.581 2.671.143.504.403 1.629.577 2.5.59 2.954 1.143 5.543 1.4 6.565.141.56.368 1.581.505 2.268.242 1.221 1.033 4.909 1.842 8.584.222 1.008.482 2.093.577 2.41.096.317.255 1.217.355 2 .403 3.185 1.763 4.472 2.3 2.178.076-.324.231-.963.343-1.422.113-.458.348-1.508.523-2.333.174-.825.503-2.213.729-3.083.727-2.789 1.393-5.724 1.514-6.667.064-.504.177-.992.251-1.083.073-.092.22-.655.327-1.25.107-.596.342-1.609.522-2.25.181-.642.504-1.992.718-3 .683-3.216 1.125-5.137 1.437-6.25.167-.596.351-1.421.41-1.834.059-.412.28-1.35.491-2.083.212-.733.471-1.896.576-2.583.105-.688.305-1.601.445-2.03.242-.739.78-3.048 1.352-5.804.143-.687.44-1.916.66-2.731.22-.814.483-2.052.584-2.75.101-.698.243-1.344.314-1.435.174-.222.826-2.939.826-3.44 0-.216.141-.769.312-1.227.171-.458.407-1.358.522-2 .116-.642.345-1.654.508-2.25.164-.596.35-1.421.413-1.833.064-.413.324-1.613.579-2.667.255-1.054.59-2.442.745-3.083.155-.642.571-2.462.926-4.044.355-1.582.691-2.951.747-3.042.109-.176 17.875-.238 18.523-.064.318.086.382.287.566 1.79.114.931.352 2.031.53 2.443.177.412.427 1.444.555 2.292.128.848.338 1.748.466 2s.285.908.349 1.458c.134 1.156.559 2.923.761 3.167.076.093.222.805.324 1.584.103.779.335 1.77.517 2.204.182.433.413 1.408.514 2.166.101.759.325 1.738.497 2.177.172.439.314.964.315 1.167.001.202.196 1.118.434 2.035.237.917.531 2.267.653 3 .121.733.333 1.708.47 2.167.137.458.372 1.47.522 2.25.151.779.419 1.848.596 2.375.178.528.323 1.128.323 1.334 0 .206.218 1.199.483 2.207.266 1.009.532 2.209.592 2.667.06.458.249 1.283.42 1.833.171.55.438 1.675.594 2.5.156.825.382 1.693.502 1.928.12.235.273.91.34 1.5s.299 1.632.516 2.317c.217.684.475 1.765.574 2.402.099.637.289 1.465.421 1.839.133.375.39 1.446.571 2.381.181.935.43 1.986.554 2.337.124.35.281 1.123.35 1.717.068.594.294 1.604.501 2.246.206.642.468 1.729.582 2.417.113.687.271 1.373.349 1.523.13.249.399 1.602.837 4.221.369 2.206 1.734 2.339 2.131.208.106-.57.298-1.373.427-1.786.129-.412.32-1.385.425-2.161.104-.776.293-1.658.419-1.959.126-.301.386-1.424.578-2.497.192-1.072.419-2.034.504-2.137.086-.103.267-.983.404-1.955.136-.972.394-2.204.573-2.737.179-.534.406-1.552.505-2.262.098-.711.322-1.724.498-2.25.176-.527.409-1.558.518-2.292.109-.733.295-1.565.412-1.848.118-.284.304-1.071.413-1.75.11-.679.374-1.835.587-2.568.214-.734.482-2.009.597-2.834.114-.825.264-1.575.331-1.666.12-.162.525-2.086.751-3.567.062-.403.209-.965.327-1.25.118-.284.305-1.116.415-1.849.11-.732.303-1.595.429-1.916.125-.322.38-1.464.567-2.539.187-1.074.412-2.124.5-2.333.088-.209.316-1.259.505-2.334.19-1.074.446-2.199.57-2.5.123-.3.275-1.033.337-1.629.063-.596.255-1.533.429-2.083.173-.55.436-1.675.585-2.5.148-.825.406-1.988.573-2.584.167-.596.43-1.785.584-2.643.154-.857.378-1.834.496-2.17.119-.335.267-1.021.331-1.523.063-.503.234-1.326.379-1.83.145-.505.387-1.592.538-2.417l.274-1.5h18.985l-.056.402c-.032.221-.154.498-.272.616-.118.118-.302.725-.41 1.348-.285 1.649-.517 2.606-.677 2.799-.078.094-.227.8-.332 1.569-.106.77-.31 1.694-.454 2.054-.249.623-.582 2.05-1.389 5.962-.199.962-.5 2.2-.67 2.75-.17.55-.387 1.496-.482 2.103-.096.607-.286 1.422-.424 1.812-.137.389-.395 1.436-.574 2.327-.178.89-.401 1.8-.494 2.022-.093.221-.329 1.255-.524 2.298-.195 1.042-.454 2.242-.576 2.666-.121.425-.27 1.109-.33 1.522-.06.412-.25 1.2-.423 1.75-.174.55-.436 1.659-.584 2.465-.147.806-.366 1.706-.485 2-.12.294-.269.948-.333 1.452s-.267 1.479-.453 2.166c-.374 1.387-.979 4.043-1.501 6.584-.188.916-.479 2.116-.647 2.666-.168.55-.358 1.375-.422 1.834-.064.458-.285 1.358-.489 2-.205.641-.464 1.691-.575 2.333-.111.642-.271 1.395-.356 1.674-.166.546-.966 4.047-1.483 6.493-.175.825-.401 1.762-.503 2.083-.102.321-.374 1.408-.606 2.417-.231 1.008-.528 2.283-.659 2.833-.132.55-.317 1.412-.412 1.917-.094.504-.278 1.254-.408 1.666-.13.413-.316 1.275-.413 1.917-.098.642-.288 1.506-.423 1.921-.135.415-.428 1.577-.651 2.583-.443 1.994-1.245 5.531-1.645 7.246-.139.596-.366 1.571-.505 2.167-.138.596-.367 1.533-.507 2.083-.141.55-.366 1.525-.5 2.167-1.554 7.448-2.825 12.019-3.38 12.158-.487.122-17.778.124-18.096.002-.248-.095-1.388-3.597-1.543-4.744-.056-.412-.244-1.162-.418-1.666-.174-.505-.396-1.462-.493-2.129-.097-.667-.295-1.529-.439-1.917-.144-.387-.369-1.304-.5-2.038-.13-.733-.339-1.52-.464-1.75-.222-.408-.477-1.424-.69-2.75-.059-.366-.208-.891-.332-1.166-.124-.275-.386-1.362-.582-2.415-.197-1.053-.432-2.004-.522-2.114-.091-.109-.268-.831-.393-1.604-.125-.773-.343-1.683-.485-2.023-.142-.34-.369-1.249-.503-2.021-.135-.772-.358-1.648-.495-1.947-.137-.298-.298-.918-.359-1.376-.06-.459-.291-1.471-.512-2.25-.222-.78-.485-1.936-.584-2.57-.099-.633-.289-1.458-.423-1.833-.133-.374-.356-1.281-.495-2.014-.139-.733-.387-1.638-.551-2.011-.164-.372-.352-1.11-.418-1.638-.066-.529-.252-1.349-.414-1.823-.163-.474-.389-1.386-.503-2.028-.115-.642-.35-1.654-.524-2.25-.173-.596-.434-1.683-.579-2.417-.145-.733-.372-1.554-.505-1.824s-.323-1.02-.422-1.667c-.1-.646-.324-1.55-.498-2.009-.174-.458-.431-1.493-.572-2.299-.14-.807-.359-1.707-.485-2-.127-.294-.351-1.199-.5-2.013-.148-.813-.376-1.684-.506-1.935-.13-.252-.318-1.124-.417-1.938-.176-1.432-.278-1.872-.775-3.329-.777-2.278-1.887-1.183-2.465 2.431-.154.962-.418 2.163-.588 2.667-.169.504-.362 1.366-.428 1.916-.067.55-.294 1.488-.506 2.084-.211.595-.469 1.712-.572 2.481-.104.769-.288 1.556-.41 1.75-.121.193-.348 1.063-.504 1.932-.156.868-.381 1.768-.5 2-.12.231-.307 1.007-.415 1.724-.109.718-.341 1.722-.517 2.233-.176.511-.435 1.644-.575 2.518-.141.875-.331 1.681-.423 1.791-.092.111-.315.964-.496 1.896-.18.932-.431 1.896-.556 2.143-.125.246-.319 1.083-.43 1.859-.112.777-.3 1.602-.418 1.834-.118.232-.343 1.134-.499 2.005-.157.871-.389 1.884-.516 2.25-.128.367-.378 1.417-.556 2.334-.179.916-.436 1.929-.572 2.25-.136.32-.301 1.033-.367 1.583s-.227 1.263-.359 1.583c-.132.321-.387 1.334-.568 2.25-.18.917-.432 1.967-.559 2.334-.128.366-.362 1.379-.52 2.25-.158.87-.415 1.958-.571 2.416-.157.459-.338 1.24-.403 1.737-.065.496-.231 1.171-.369 1.5-.138.328-.404 1.384-.592 2.347-.187.962-.402 1.826-.478 1.919-.075.093-.256.856-.401 1.696-.146.84-.413 1.988-.593 2.553-.181.565-.409 1.527-.507 2.137-.099.611-.407 1.58-.685 2.153l-.506 1.042-8.859.019c-10.868.023-9.985.124-10.205-1.167-.057-.331-.312-1.427-.568-2.436-.256-1.008-.518-2.208-.583-2.666-.065-.459-.221-1.079-.345-1.378-.125-.3-.35-1.268-.501-2.151-.15-.882-.38-1.907-.51-2.276-.13-.369-.317-1.202-.414-1.85-.098-.648-.288-1.514-.424-1.924-.136-.41-.397-1.535-.58-2.5-.183-.965-.433-2.018-.555-2.339-.122-.322-.312-1.176-.422-1.9-.11-.723-.369-1.851-.577-2.506-.208-.655-.432-1.624-.499-2.154-.066-.529-.22-1.201-.341-1.493-.122-.292-.385-1.43-.585-2.53-.2-1.1-.432-2.082-.516-2.184-.084-.102-.267-.948-.406-1.88-.14-.932-.399-2.063-.576-2.513-.178-.45-.398-1.423-.491-2.161-.093-.738-.276-1.55-.407-1.804-.131-.254-.291-.836-.355-1.293-.17-1.223-.602-3.139-.751-3.331-.071-.092-.224-.879-.34-1.75-.116-.871-.354-1.996-.528-2.5-.175-.504-.421-1.592-.548-2.417-.127-.825-.341-1.725-.475-2-.135-.275-.37-1.247-.523-2.159-.153-.913-.373-1.851-.49-2.084-.116-.233-.298-1.066-.405-1.852-.106-.785-.338-1.84-.515-2.343-.177-.504-.441-1.656-.587-2.561-.145-.905-.34-1.737-.432-1.848-.093-.111-.31-1.016-.482-2.011-.173-.995-.425-2.071-.561-2.392-.135-.321-.301-1.033-.367-1.583-.067-.55-.253-1.375-.413-1.833-.304-.869-.565-2.082-.753-3.5-.061-.459-.213-1.078-.338-1.377-.124-.299-.31-1.156-.412-1.905-.103-.748-.361-1.928-.574-2.623-.213-.694-.433-1.637-.489-2.095-.057-.459-.243-1.284-.416-1.834-.172-.55-.439-1.697-.593-2.549-.155-.852-.379-1.79-.499-2.084-.12-.293-.271-.983-.335-1.533-.064-.55-.296-1.638-.516-2.417-.219-.779-.484-1.979-.588-2.667-.104-.687-.291-1.446-.415-1.687-.123-.241-.303-.953-.399-1.583-.171-1.122-1.042-4.187-1.357-4.778-.088-.164-.115-.371-.061-.458.12-.194 18.73-.218 19.033-.026m151.796 31.027c-1.024.168-3.98.958-4.683 1.252-.285.119-.835.269-1.223.335-.389.066-1.186.337-1.771.602-.586.266-1.161.483-1.277.484-.117.001-.437.124-.712.273-.275.15-.932.486-1.459.748-.527.261-.958.551-.958.643 0 .093-.097.168-.216.168-.289 0-2.497 1.458-2.667 1.761-.073.132-.23.239-.348.239-.118 0-.408.207-.646.459-.238.252-.813.795-1.278 1.207-.465.412-.845.794-.845.848 0 .054-.284.398-.632.763-2.902 3.051-4.702 8.011-4.829 13.307-.142 5.965 1.068 9.841 4.372 14.009.654.825 2.848 2.863 3.639 3.382.232.151.784.531 1.227.844.444.313 1.181.768 1.64 1.012.458.245.983.526 1.166.625.81.44 2.24 1.044 3.084 1.302.504.154 1.073.378 1.265.498.192.12.767.295 1.277.389.51.095 1.366.354 1.901.577.535.222 1.423.459 1.973.525.55.067 1.218.234 1.485.372.267.138 1.35.392 2.407.564 1.057.173 2.226.426 2.598.564.372.137 1.174.325 1.781.418.607.092 1.516.351 2.02.574.504.222 1.189.456 1.521.518.333.063.605.173.605.246 0 .073.396.356.88.629 2.53 1.427 3.611 4.422 2.528 7-.401.954-1.477 2.368-1.803 2.368-.055 0-.459.221-.897.491-1.21.744-4.617 1.293-6.366 1.026-2.721-.415-3.225-.542-4.073-1.02-.484-.273-.977-.497-1.097-.497-.119 0-.383-.168-.586-.375-.203-.206-.609-.591-.902-.855-.294-.264-.736-.751-.984-1.083-.247-.332-.544-.702-.658-.824-.115-.121-.209-.309-.209-.419 0-.109-.215-.648-.479-1.196-.31-.645-.519-1.41-.592-2.164-.244-2.526.233-2.417-10.529-2.417-9.606 0-10.319.053-10.917.805-.581.731-.135 3.655.987 6.464.188.468.427 1.331.533 1.916.105.586.335 1.299.511 1.585.176.285.32.607.32.715 0 .445 1.963 4.094 2.508 4.662.142.148.398.495.569.77.758 1.219 3.134 3.53 5.091 4.952.595.432 1.281.938 1.525 1.125.243.186.51.339.592.339.082 0 .483.212.89.47.408.258.999.559 1.314.669.315.109.69.303.833.431.144.128.598.322 1.01.432.412.11 1.031.344 1.375.519.345.176 1.245.437 2.001.58.756.144 1.457.329 1.557.412.1.083.925.263 1.833.4.909.137 2.439.37 3.402.517 4.421.677 12.117.197 15.009-.936.418-.163 1.131-.352 1.584-.419.453-.066 1.273-.324 1.823-.573.55-.248 1.225-.506 1.5-.573.275-.067.613-.215.75-.33.138-.115.608-.341 1.045-.502.437-.161.892-.39 1.01-.509.119-.119.512-.367.872-.551 1.173-.599 3.167-2.175 4.579-3.62 1.431-1.464 1.433-1.466 3.156-4.083.527-.801 1.511-2.874 1.964-4.141l.458-1.276V85.083l-.475-1.325c-.261-.729-.692-1.734-.958-2.232-.266-.498-.484-.999-.484-1.112 0-.114-.118-.305-.263-.425-.145-.12-.441-.57-.659-.999-.218-.43-.512-.826-.654-.881-.141-.054-.257-.201-.257-.326 0-.292-2.855-3.183-3.899-3.95-.437-.321-.936-.711-1.108-.868-.172-.156-.635-.448-1.028-.647-.393-.2-.753-.42-.799-.49-.112-.173-2.679-1.494-2.904-1.496-.098 0-.404-.12-.679-.265-.611-.323-3.615-1.329-4.417-1.48-.321-.06-1.071-.251-1.666-.426-.596-.174-1.946-.439-3-.589-1.055-.15-2.176-.38-2.492-.511-.316-.131-1.086-.311-1.712-.4-.626-.088-1.567-.317-2.092-.509-.525-.191-1.442-.462-2.038-.602-.596-.14-1.196-.349-1.333-.465-.138-.116-.593-.36-1.011-.542-.419-.182-.959-.528-1.201-.77-.242-.242-.501-.44-.575-.44-.76 0-1.6-3.637-.963-4.166.137-.114.25-.301.25-.414 0-.854 1.972-2.313 4.031-2.982 1.574-.511 5.761-.62 6.319-.163.128.105.618.305 1.088.443 2.37.699 4.597 3.021 5.186 5.408.201.814.41 1.22.847 1.644l.58.564h8.954c8.135 0 8.975-.026 9.183-.277.442-.534.316-6.565-.165-7.89-.735-2.024-2.204-4.896-2.982-5.832-2.205-2.653-4.02-4.467-4.968-4.965-.223-.118-.406-.281-.406-.364 0-.082-.169-.201-.375-.264-.207-.062-.527-.252-.713-.422-.588-.536-4.348-2.517-5.17-2.723-.265-.067-.81-.271-1.213-.455-.403-.183-1.2-.431-1.771-.551-.571-.119-1.181-.29-1.356-.379-.176-.09-.881-.297-1.569-.461-.687-.165-1.662-.41-2.167-.546-1.052-.283-9.807-.446-11.25-.21m71.154.169c-.09.09-1.474.285-3.075.434-2.097.195-3.108.363-3.614.598-.386.18-1.16.393-1.721.472-.56.079-1.369.326-1.798.548-.428.222-1.076.458-1.44.525-.364.067-.851.254-1.083.417-.233.163-.699.386-1.037.495-.338.11-.788.334-1 .499-.212.165-.667.392-1.012.504-.344.112-.7.342-.79.511-.09.168-.384.355-.653.414-.27.059-.664.279-.877.49-.213.211-.622.503-.908.65-.287.147-.566.382-.62.523-.054.141-.208.256-.342.256-.133 0-.39.188-.571.417-.18.229-.396.417-.48.417-.084 0-.911.768-1.836 1.708-2.477 2.514-2.713 2.779-2.713 3.047 0 .135-.065.245-.143.245-.182 0-1.506 1.764-1.693 2.256-.078.205-.334.565-.57.801-.235.235-.428.532-.428.659 0 .128-.152.37-.338.538-.187.169-.419.626-.518 1.016-.098.39-.321.838-.495.996-.174.158-.399.591-.499.963-.1.371-.32.852-.489 1.067-.17.215-.402.817-.516 1.339-.115.521-.341 1.136-.504 1.365-.162.229-.368.878-.456 1.441-.088.564-.317 1.332-.508 1.706-.231.452-.41 1.288-.533 2.476-.101.986-.28 1.906-.397 2.043-.811.95-.717 12.833.114 14.384.089.166.231.976.316 1.798.091.88.29 1.76.483 2.138.18.354.442 1.187.58 1.853.139.665.356 1.329.483 1.477.127.147.321.642.432 1.1.112.459.338.984.503 1.167.166.183.393.727.505 1.208.112.482.269.875.349.875.08 0 .331.406.557.901.227.496.493.951.591 1.012.098.06.289.374.424.697.135.323.434.811.664 1.085.23.274.419.604.419.733 0 .13.15.33.333.444.184.115.334.277.334.36 0 .084.243.488.541.899.562.773 1.037 1.328 2.911 3.396.111.123.661.636 1.221 1.14.56.504 1.278 1.16 1.595 1.458.317.298.642.542.721.542.132 0 1.153.763 1.884 1.408.16.14.621.411 1.026.601.404.19.867.491 1.027.668.161.178.419.323.575.323.156 0 .483.185.727.411.243.226.76.496 1.147.6.388.105.893.322 1.123.483.23.162.812.393 1.293.515.482.121.875.272.875.336 0 .176.816.456 1.871.641.525.093 1.132.284 1.349.426.216.142 1.212.373 2.212.514 1 .14 2.156.383 2.568.54 1.167.442 13.152.429 13.967-.016.302-.165 1.202-.373 2-.462 2.058-.229 2.517-.329 2.794-.605.134-.134.786-.322 1.45-.418.735-.105 1.337-.292 1.543-.479.185-.168.811-.416 1.391-.551.58-.136 1.189-.367 1.352-.515.164-.148.573-.346.911-.439.338-.093.75-.306.917-.473.167-.166.569-.39.893-.497.324-.107.684-.309.8-.448.115-.14.499-.402.853-.582.354-.181.79-.475.97-.655.179-.179.437-.326.572-.326.136 0 .369-.187.519-.417.15-.229.358-.416.463-.416.104-.001.484-.263.844-.584.36-.321.705-.583.765-.583.061 0 .678-.581 1.372-1.292 2.163-2.214 3.036-3.22 3.39-3.905.133-.258.297-.47.364-.47.066 0 .297-.332.513-.738.215-.407.492-.778.615-.825.123-.047.273-.346.332-.664.06-.318.29-.748.511-.956.222-.208.483-.675.581-1.038.098-.364.321-.856.496-1.095.776-1.058.361-2.184-.805-2.184-.229 0-.657-.148-.951-.33-.294-.181-1.016-.398-1.604-.482-.589-.083-1.382-.313-1.762-.511-.38-.198-1.204-.435-1.832-.526-.627-.092-1.403-.304-1.724-.473-.321-.168-1.108-.395-1.75-.504-.641-.109-1.29-.309-1.44-.445-.151-.137-.929-.354-1.73-.484-.8-.129-1.78-.393-2.178-.585-.397-.192-1.209-.419-1.805-.503-.596-.084-1.33-.304-1.632-.488-1.3-.792-2.982-.397-3.288.773-.099.38-.288.732-.42.783-.131.05-.36.324-.507.609-.147.285-.398.645-.557.8-.598.584-1.838 1.533-2.004 1.533-.094 0-.374.188-.621.417-.247.229-.57.417-.717.418-.147.002-.695.219-1.217.484-1.959.994-10.183 1.086-11.276.127-.151-.132-.702-.363-1.224-.512-.523-.149-.996-.347-1.053-.439-.057-.091-.379-.308-.717-.481-.921-.472-3.697-3.281-3.697-3.74 0-.109-.211-.459-.468-.778-.258-.32-.559-.986-.672-1.488-.112-.5-.313-1.031-.448-1.18-.334-.369-.593-1.823-.392-2.199.151-.281 1.381-.296 24.738-.296h24.58l.619-.567c.592-.542.624-.626.734-1.958.28-3.37.091-9.297-.356-11.141-.1-.413-.26-1.5-.355-2.417-.097-.936-.311-1.959-.486-2.333-.172-.367-.36-1.005-.418-1.417-.14-.993-.567-2.333-.744-2.333-.078 0-.231-.431-.341-.958-.109-.527-.339-1.137-.511-1.355-.172-.219-.394-.706-.494-1.084-.101-.378-.317-.837-.48-1.02-.164-.183-.392-.633-.506-1-.114-.367-.336-.817-.494-1-.157-.183-.379-.57-.492-.859-.114-.288-.389-.695-.611-.904-.222-.208-.403-.465-.403-.57 0-.106-.187-.368-.417-.584-.229-.215-.416-.463-.416-.55 0-.088-.244-.433-.542-.766-.298-.334-.767-.903-1.042-1.265-.871-1.145-4.342-4.419-4.684-4.419-.07 0-.282-.145-.472-.322-.51-.479-1.424-1.118-2.177-1.523-.367-.197-.817-.488-1-.645-.183-.158-.652-.377-1.042-.488-.389-.111-.708-.268-.708-.35 0-.081-.431-.309-.958-.506-.527-.197-1.071-.458-1.209-.581-.137-.123-.55-.277-.916-.342-.367-.066-1.117-.325-1.667-.575-.55-.251-1.425-.498-1.943-.548-.519-.051-1.131-.215-1.361-.366-.421-.276-3.976-.744-5.706-.75-.478-.002-.983-.11-1.166-.248-.387-.293-7.054-.376-7.337-.092m-62.604.67c1.925.204 3.535.466 4.135.673.54.186 1.503.413 2.14.503.636.091 1.386.283 1.666.427.28.145.987.403 1.571.574.584.171 1.221.414 1.417.541.195.127.655.325 1.021.44.367.116.929.375 1.25.577.321.202.827.466 1.125.586.298.121.542.268.542.328 0 .059.281.254.625.433.707.368 3.441 2.642 4.454 3.705 1.34 1.407 1.588 1.694 1.588 1.843 0 .083.136.275.303.426.166.15.467.604.669 1.007.201.403.473.822.603.93.13.108.289.435.352.727.064.291.292.869.509 1.284.351.675.739 1.899 1.241 3.918.092.37.146 1.532.12 2.583l-.047 1.911-8.815.043c-9.588.047-9.099.099-9.427-.999-.598-2.007-3.331-5.627-4.247-5.627-.066 0-.659-.255-1.316-.566-2.586-1.226-7.045-1.183-9.725.094-4.566 2.175-4.944 7.156-.72 9.472.251.137.763.419 1.138.625.375.206.774.375.886.375.112 0 .509.144.881.32 1.079.508 5.893 1.693 9.178 2.259.733.126 1.633.304 2 .394 3.276.812 6.102 1.719 7.327 2.352.363.188.776.344.917.346.141.003.551.228.911.5.36.273.74.496.845.496.165 0 1.019.575 2.398 1.616.639.483 1.536 1.27 1.916 1.683.194.21.692.745 1.107 1.189.821.879 2.162 2.721 2.162 2.971 0 .085.144.285.319.444.175.158.368.489.429.734.062.245.303.821.537 1.279.234.459.525 1.284.647 1.834.121.55.342 1.525.49 2.166.383 1.661.288 10.485-.124 11.5-.149.367-.319.967-.378 1.334-.059.366-.317 1.079-.573 1.583-.256.504-.514 1.118-.573 1.363-.059.246-.223.563-.365.704-.141.142-.409.601-.595 1.022-.186.42-.438.803-.561.85-.122.047-.265.253-.316.459-.209.832-4.204 4.536-5.748 5.33-.333.171-.643.369-.689.439-.101.156-1.726.996-3.083 1.594-1.593.702-3.712 1.394-5.337 1.743-.826.177-1.876.438-2.333.58-1.992.62-11.538.727-14.096.158-.587-.131-1.817-.39-2.734-.577-.917-.186-1.892-.42-2.167-.519-.275-.099-1.072-.353-1.772-.564-4.089-1.236-9.589-4.874-11.84-7.832-.209-.275-.459-.582-.556-.683-.096-.101-.435-.613-.753-1.137-.318-.525-.784-1.267-1.034-1.65s-.457-.783-.458-.89c-.002-.106-.188-.556-.414-1-.506-.995-1.321-3.466-1.584-4.807-.107-.55-.338-1.525-.511-2.166-.396-1.466-.567-3.251-.342-3.584.147-.217 1.406-.25 9.628-.25h9.458l.286.75c.157.413.402 1.261.544 1.886.141.625.367 1.337.501 1.583.134.247.403.759.598 1.139 1.939 3.789 7.148 5.978 12.414 5.217 6.448-.931 9.126-7.035 4.939-11.256-.401-.405-.781-.735-.845-.735-.063 0-.363-.221-.665-.492-.303-.27-.785-.541-1.072-.604-.287-.062-.709-.244-.938-.404-.229-.161-.804-.374-1.277-.474-.473-.101-1.253-.332-1.734-.515-.48-.182-1.63-.421-2.556-.53-.926-.109-2.044-.338-2.484-.508-.441-.17-1.502-.414-2.358-.543-.857-.129-1.734-.346-1.95-.482-.215-.137-.916-.366-1.558-.509-.642-.144-1.464-.414-1.827-.6-.363-.187-.816-.339-1.006-.339-.191 0-.644-.152-1.007-.337-.363-.185-1.035-.478-1.493-.65-1.579-.593-3.51-1.719-6.246-3.64-.492-.346-2.634-2.501-3.043-3.061-.646-.887-1.628-2.447-1.628-2.588 0-.082-.223-.598-.495-1.145-.272-.548-.497-1.089-.5-1.204-.003-.114-.153-.639-.334-1.166-.909-2.648-.908-9.752.002-12.418.18-.528.327-1.057.327-1.177 0-.12.143-.514.317-.875.174-.361.51-1.069.746-1.573s.524-1.066.641-1.25c.655-1.027 1.737-2.547 2.035-2.859.19-.198.427-.46.529-.583.721-.877 4.382-3.781 5.231-4.15.229-.099.642-.352.917-.56.275-.209.801-.477 1.167-.596.367-.119.81-.314.986-.435.175-.121.738-.34 1.25-.486.512-.147 1.201-.409 1.532-.582.33-.173 1.005-.367 1.5-.432.494-.065 1.395-.286 2.001-.491 1.011-.343 1.99-.51 5.231-.895 1.869-.222 2.711-.2 6.05.153m70.778.184c2.316.134 3.441.273 4.172.514.55.182 1.661.429 2.469.55.808.121 1.596.331 1.75.467.155.135.794.362 1.42.502.626.141 1.264.367 1.417.504.153.136.61.336 1.016.444.406.109.969.37 1.25.581.282.211.75.434 1.042.496.291.062.62.221.73.354.11.132.529.386.93.564.402.177.772.432.824.566.051.134.28.291.509.348.786.197 4.929 3.912 6.394 5.733.32.398.751.881.958 1.072.206.191.375.435.375.543 0 .107.225.43.5.718s.5.637.5.776c0 .14.225.489.5.777.275.287.5.611.5.719 0 .109.217.529.482.934s.533.981.596 1.279c.063.298.182.541.264.541.212 0 .593.808.725 1.537.062.34.227.734.367.874.14.14.372.723.516 1.297.144.573.393 1.23.555 1.46.165.236.347.924.418 1.583.068.641.259 1.48.424 1.864.373.872.603 2.511.744 5.302.06 1.192.214 2.537.342 2.989.281.991.308 3.477.043 3.973-.105.196-.242 1.085-.303 1.977-.065.927-.206 1.733-.33 1.882-.196.236-2.654.262-24.758.262h-24.54l-.46.362c-.59.464-.341 3.525.341 4.208.127.127.301.541.386.92.085.379.276.855.423 1.058.148.203.452.645.678.982.331.495 1.401 1.72 2.046 2.34.733.705 1.243 1.13 1.357 1.13.076 0 .421.225.767.5.346.275.736.5.867.5.13 0 .701.219 1.269.486.639.301 1.452.527 2.14.595.61.06 1.247.214 1.416.342.433.328 4.623.338 5.413.012.309-.127.974-.282 1.478-.344 1.109-.138 1.996-.394 2.334-.674.137-.114.55-.303.916-.42.367-.116.846-.388 1.065-.604.218-.216.483-.393.587-.393.535 0 2.851-2.586 3.319-3.705.364-.87.935-1.081 1.811-.671.395.185 1.131.391 1.635.458s1.299.301 1.766.52c.467.219 1.075.398 1.35.398.569 0 1.427.246 2.073.593.241.13.938.307 1.548.394.61.086 1.439.316 1.841.511.403.195 1.244.432 1.869.528.625.096 1.361.31 1.636.476.275.166.95.356 1.5.422s1.338.288 1.75.493c.413.205 1.23.456 1.816.557 1.257.218 1.268.226 1.017.695-.108.2-.334.767-.503 1.26-.17.493-.463 1.062-.653 1.265-.189.203-.343.469-.343.592 0 .122-.263.604-.584 1.07-.32.467-.583.931-.583 1.032 0 .101-.15.337-.334.523-.183.187-.6.677-.926 1.089-1.498 1.895-3.625 4.144-4.49 4.748-.499.348-1.135.872-1.824 1.502-.2.184-.622.467-.937.629-.569.294-1.361.815-2.156 1.419-.229.175-.617.366-.862.426s-.657.287-.916.505c-.26.217-.734.451-1.055.52-.321.07-.78.265-1.021.436-.241.17-.871.422-1.401.56-.53.138-1.087.362-1.238.499-.151.137-.758.319-1.349.406-.591.087-1.637.343-2.324.568-.781.256-1.876.454-2.917.526-.917.063-2.037.222-2.489.352-1.168.338-8.696.337-9.992 0-.503-.131-1.726-.291-2.717-.356-1.165-.076-2.008-.219-2.385-.406-.566-.28-1.547-.533-2.917-.754-.367-.06-.786-.215-.932-.346-.147-.131-.708-.354-1.248-.494-.541-.141-1.134-.396-1.318-.568-.184-.171-.612-.362-.951-.425-.338-.062-.856-.292-1.152-.509-.295-.218-.787-.479-1.093-.58-.306-.101-.556-.254-.556-.339 0-.086-.394-.331-.875-.544-.481-.213-.978-.512-1.104-.664-.126-.153-.33-.277-.454-.277s-.349-.188-.499-.417c-.15-.229-.366-.417-.479-.417-.113 0-.686-.447-1.273-.994-.586-.547-1.272-1.081-1.524-1.187-.252-.106-.459-.292-.459-.414s-.116-.286-.258-.366c-.274-.153-2.487-2.74-3.325-3.885-.275-.377-.65-.854-.833-1.062-.184-.207-.513-.726-.732-1.151-.219-.426-.457-.774-.529-.774-.071 0-.222-.277-.334-.616-.111-.339-.377-.804-.59-1.034-.213-.229-.432-.624-.488-.876-.055-.252-.234-.631-.398-.841-.163-.211-.425-.771-.581-1.245-.156-.474-.382-.944-.503-1.045-.121-.1-.31-.642-.421-1.204-.11-.562-.349-1.222-.53-1.468-.2-.269-.397-.935-.499-1.683-.093-.681-.285-1.417-.426-1.636-.148-.228-.359-1.262-.495-2.417-.13-1.11-.36-2.506-.51-3.102-.373-1.482-.38-8.353-.009-9.097.133-.268.338-1.461.456-2.653.13-1.309.335-2.437.52-2.85.167-.376.383-1.178.48-1.782.204-1.277.306-1.603.614-1.965.124-.145.307-.707.406-1.25.1-.542.287-1.105.417-1.25.13-.145.36-.628.512-1.073.152-.445.451-1.068.666-1.384.215-.317.39-.709.39-.873 0-.163.176-.509.39-.768.215-.259.47-.704.566-.988.097-.284.353-.701.569-.927.358-.375.574-.697 1.312-1.958.139-.237.439-.631.666-.876.228-.244.639-.727.914-1.074.676-.852 3.726-3.898 3.903-3.898.078 0 .265-.188.415-.417.15-.229.378-.417.507-.417s.377-.181.551-.402c.174-.221.573-.522.887-.668.565-.263 1.322-.756 2.182-1.422.244-.189.665-.388.935-.442.269-.054.69-.27.934-.48.244-.21.787-.468 1.205-.573.419-.106.961-.333 1.204-.506.244-.172.851-.396 1.348-.498.497-.101 1.135-.325 1.417-.498.281-.172 1.02-.367 1.641-.432.62-.065 1.408-.263 1.75-.439 1.285-.663 7.92-.962 13.782-.622m-129.069.828c-.407.081-.857.265-1 .407-.232.233-.263 4.074-.302 37.476l-.044 37.216.353.32c.465.42 20.54.506 21.042.09.255-.212.276-3.039.276-37.599V40.718l-.351-.317c-.389-.352-18.331-.552-19.974-.222m19.275 1.02.55.533v73.443l-.428.162c-.465.177-19.022.236-19.475.062-.454-.174-.391-73.474.063-74.066l.32-.416 9.135-.087c5.024-.048 9.169-.104 9.21-.125.042-.021.323.201.625.494m148.133-.333c-.183.104-.388.27-.456.37-.333.491-.139 75.246.195 75.425.493.263 24.38.237 24.644-.028.154-.153.2-4.773.2-19.781 0-19.189.022-20.108.526-22.352.092-.413.274-1.487.403-2.388.161-1.121.341-1.774.572-2.067.185-.236.385-.729.443-1.095.059-.367.243-.803.408-.968.166-.166.457-.586.647-.933.531-.97 1.241-1.901 1.597-2.095.177-.096.378-.27.448-.387.07-.117.473-.385.896-.596.422-.211.804-.476.847-.59.043-.113.353-.253.688-.312.335-.059 1.096-.305 1.692-.547l1.083-.439h11.834L342 89.298c.073 23.948.113 27.233.333 27.372.477.302 24.528.209 24.963-.096l.371-.26V96.282c0-19.926.098-24.226.56-24.774.283-.335.553-1.089.691-1.925.06-.366.243-.816.406-1 .163-.183.382-.587.486-.898.104-.311.339-.724.521-.917.183-.193.876-.933 1.541-1.643.665-.71 1.336-1.292 1.492-1.292.156 0 .382-.135.502-.301.119-.165.714-.433 1.32-.595.607-.163 1.32-.421 1.584-.575.426-.247 1.319-.284 7.891-.327 8.866-.058 8.006.215 8.006-2.54 0-1.277.079-2.149.229-2.516.402-.985.491-15.376.098-15.861-.598-.739-13.956-.439-15.429.347-.357.19-1.038.432-1.515.538-.477.106-.96.305-1.074.443-.114.137-.53.401-.925.587-.395.185-.718.402-.718.481 0 .079-.227.262-.504.405-.647.334-2.496 2.066-2.496 2.336 0 .114-.187.33-.416.48-.229.15-.417.369-.417.488 0 .118-.225.43-.5.694-.275.263-.5.535-.5.603 0 .069-.078.33-.173.58-.411 1.08-.575.13-.66-3.81l-.084-3.861-.568-.383-.569-.383-15.931.058c-16.651.061-19.423.162-20.405.741-.29.171-.902.405-1.36.52-.458.114-.983.344-1.167.511-.183.166-.512.356-.731.423-.983.299-4.098 3.144-4.608 4.209-.143.298-.335.542-.427.542-.092 0-.275.257-.406.572-.132.314-.316.619-.411.678-.094.058-.332.419-.527.803-.542 1.061-.615.581-.628-4.141-.01-3.492-.054-4.232-.271-4.542l-.26-.37-11.865.005c-8.53.003-11.959.058-12.199.194m24.05.667c.146.146.2 1.427.2 4.718 0 3.539.049 4.586.226 4.828.314.429.735.223 1.041-.51.138-.332.396-.758.572-.947.176-.188.402-.593.503-.899.101-.306.252-.556.336-.556.083 0 .332-.282.554-.625.584-.906 2.403-2.748 3.226-3.267.39-.245.709-.514.709-.597 0-.083.243-.203.541-.266.298-.063.784-.297 1.079-.518.3-.226.961-.478 1.5-.573.53-.093 1.338-.335 1.796-.537l.834-.367 16.739-.052c9.207-.029 16.914-.009 17.125.045l.386.096v4.46c0 3.77.04 4.517.26 4.831l.26.371.813-.701c.448-.385.861-.887.918-1.114.057-.228.286-.631.509-.896.224-.266.406-.568.406-.672 0-.104.193-.379.427-.612.235-.233.757-.779 1.161-1.215.403-.435.803-.791.888-.791.086 0 .197-.11.249-.243.107-.28 1.143-.997 2.257-1.565.423-.214.882-.491 1.02-.615.139-.123.705-.297 1.259-.386.553-.089 1.328-.33 1.721-.535.79-.411 11.855-.726 13.185-.374.718.19.859 1.199.438 3.134-.199.915-.27 2.829-.332 8.869-.043 4.237-.127 7.78-.186 7.875-.071.115-2.471.173-7.149.173-7.303 0-8.636.096-9.459.682-.246.175-.585.319-.754.32-.507.005-1.94.941-2.975 1.944-.805.78-2.082 2.311-2.086 2.501-.002.075-.227.466-.5.87-.273.403-.497.891-.497 1.084 0 .194-.18.69-.4 1.103-.258.485-.495 1.392-.668 2.554-.147.991-.361 1.965-.475 2.164-.161.281-.217 4.923-.252 20.979l-.046 20.619-.538.097c-.816.149-23.007.019-23.246-.135-.165-.107-.208-5.732-.208-27.204V62.009l-.492-.255c-.412-.213-1.391-.254-6.042-.253-5.973.002-7.2.111-8.405.752-.428.228-.88.414-1.005.414-.791 0-3.895 2.767-4.414 3.936-.168.377-.418.78-.557.895-.139.115-.252.302-.252.416 0 .113-.215.61-.477 1.104-.262.494-.531 1.269-.598 1.722-.067.453-.284 1.203-.482 1.667l-.36.843-.045 21.404c-.032 15.264-.098 21.467-.229 21.625-.191.231-23.12.347-23.712.12-.356-.137-.411-74.812-.055-74.955.491-.198 23.557-.111 23.758.089m-69.967 15.363c-.596.114-1.242.294-1.437.4-.195.106-.698.27-1.118.364-.42.094-1.119.397-1.553.672-.435.276-.861.501-.948.501-.171 0-.429.227-1.657 1.454-1.247 1.247-1.426 1.457-1.617 1.89-.098.224-.354.646-.568.939-.214.293-.438.837-.498 1.208-.059.372-.174.676-.254.676-.215 0-.36.431-.615 1.833-.57 3.127-1.964 2.834 13.448 2.834h12.804l.34-.365c.541-.581.337-3.199-.321-4.131-.164-.232-.349-.66-.412-.951-.063-.292-.218-.616-.343-.72-.126-.104-.392-.503-.592-.886-.2-.383-.507-.847-.683-1.03-.176-.184-.626-.655-1-1.048-.374-.392-.896-.825-1.161-.962s-.481-.311-.481-.386c0-.076-.319-.275-.709-.444-.389-.168-.862-.441-1.051-.607-.189-.166-.676-.373-1.083-.46-.408-.087-1.191-.327-1.741-.534-1.209-.455-4.947-.591-6.75-.247m5.275.612c.096.096.861.315 1.701.487.84.172 1.779.469 2.087.659.308.19.668.346.801.346.132 0 .453.221.712.492.259.27.695.541.968.601.273.06.531.238.572.396.041.157.294.416.563.575.268.158.488.385.488.503s.192.432.426.699c.235.266.545.709.69.984.144.275.362.558.483.63.122.071.271.408.332.75.061.341.282.995.491 1.453.466 1.021.637 1.8.496 2.248-.107.336-.175.337-12.971.295l-12.864-.043.03-1.057c.02-.682.122-1.158.287-1.341.141-.156.348-.693.46-1.193.111-.5.376-1.121.588-1.38.212-.259.435-.671.496-.917.158-.64 3.069-3.468 3.716-3.61.283-.062.719-.283.969-.491.336-.279.897-.446 2.156-.64.936-.145 1.836-.341 2-.437.394-.229 4.095-.237 4.323-.009"/></g></svg>